<?xml version="1.0" encoding="utf-8"?>
<!-- Generator: Adobe Illustrator 24.0.1, SVG Export Plug-In . SVG Version: 6.00 Build 0)  -->
<svg version="1.1" id="Layer_2" xmlns="http://www.w3.org/2000/svg" xmlns:xlink="http://www.w3.org/1999/xlink" x="0px" y="0px"
	 viewBox="0 0 301.7 301.7" style="enable-background:new 0 0 301.7 301.7;" xml:space="preserve">
<style type="text/css">
	.st0{fill:#FFFFFF;}
</style>
<g>
	<path class="st0" d="M297.2,146.8c-7.5-76.2-43.4-103.4-74.5-103.4c-12.7,0-20.7,4.6-27.4,9.7c-9.2,5.5-19.5,10.4-43.9,10.4
		c-23.6,0-34.2-6.4-42.8-11.6l-1.2-0.7l-0.2-0.1c-7.5-3.8-15.3-7.7-27.1-7.7c-19.2,0-65,10.1-76.4,103.5c-5.9,57.1-3,86.4,9.9,101.2
		l0.1,0.2c6.4,6.4,14.6,10.1,22.4,10.1c21.2,0,33-11.5,46.3-26.6l14.4-14.4c13.4-10,24.9-12,38.1-12H166c13.2,0,24.8,2.1,38.2,12.1
		l0.1,0.1c3.2,2.2,5.8,5.1,8.8,8.4c1.7,1.9,3.4,3.8,5.3,5.8c1,1,2,2,2.9,3c12,12.1,23.3,23.6,43.2,23.6c10.8,0,17.2-4.9,22.4-10.1
		l0.1-0.2C301.1,232.2,304.4,199.1,297.2,146.8z M267.9,230.8L267.9,230.8c-1.3,1.3-2.4,2.4-2.8,2.6c-0.2,0.1-1.1,0.1-2.2,0.1
		c-9.1,0-15.6-4.2-26.8-17.1l-16.6-16.6l-0.1-0.1c-18.7-16.8-37.5-19.1-53.4-19.1h-31.1c-17.8,0-36.6,2.3-53.5,19.2l-14.6,14.6
		c-12.6,12.6-17.3,17.3-28.8,17.3c-1.4,0-1.6,0-2.6-1.8l-0.2-0.5l-0.4-0.4c-3.9-3.9-12-19.5-4.5-81.4c2.6-25.5,8.9-46.4,18-60.5
		c8.9-13.7,20.2-20.7,33.6-20.7c4.7,0,7.9,1.6,14.8,5c11.8,7.8,26.8,15.1,56.5,15.1c22.7,0,41.2-4.9,56.5-15.1
		c6.9-3.5,10.1-5,14.8-5c15.8,0,44.1,17.1,49.7,81.1C278.6,194.2,276.5,222.2,267.9,230.8z"/>
	
		<ellipse transform="matrix(0.9732 -0.2298 0.2298 0.9732 -18.9554 52.6972)" class="st0" cx="216.8" cy="107.7" rx="14.2" ry="14.2"/>
	<path class="st0" d="M190.9,120.2c-9.3,0-14.2,7.2-14.2,14.2c0,9.3,7.2,14.2,14.2,14.2c7.3,0,14.2-6.9,14.2-14.2
		C205.1,125.1,198,120.2,190.9,120.2z"/>
	<path class="st0" d="M130.9,120.2h-16.8v-16.8c0-7.3-5.1-12.4-12.4-12.4c-7.3,0-12.4,5.1-12.4,12.4v16.8H72.4
		c-7.3,0-12.4,5.1-12.4,12.4c0,7.3,5.1,12.4,12.4,12.4h16.8v16.8c0,7.3,5.1,12.4,12.4,12.4c7.3,0,12.4-5.1,12.4-12.4v-15h16.8
		c7.3,0,12.4-5.1,12.4-12.4C143.3,127.6,138.6,120.2,130.9,120.2z"/>
	<path class="st0" d="M216.8,146.8c-1.9,0-4.6,0-7.2,2.3c-3,1.2-5.3,3.7-6.4,6.9c-1.4,4-0.7,8.6,1.7,12.3l0.2,0.3l0.2,0.2
		c0.4,0.4,0.7,0.9,1,1.4c0.6,1,1.6,2.7,3.8,3.1c2.3,1.3,4.8,2,7.4,2c4.9,0,9.7-2.4,12.7-6.7c2.6-2.7,2.6-5.6,2.6-7.6
		C232.9,153.3,225.5,146.8,216.8,146.8z"/>
	<path class="st0" d="M257.2,125.3L257,125l-0.2-0.2c-4.6-4.6-13.3-6.6-19.8-4.4l-0.4,0.1l-0.4,0.2c-3.4,2.3-5.7,5.6-6.6,9.5
		c-0.9,4-0.2,8.1,2.1,11.5c3,4.5,8,7,12.9,7c2.8,0,5.6-0.8,8.1-2.4C259.7,141.5,261.7,132.1,257.2,125.3z"/>
</g>
</svg>
