<?xml version="1.0" encoding="utf-8"?>
<!-- Generator: Adobe Illustrator 24.0.1, SVG Export Plug-In . SVG Version: 6.00 Build 0)  -->
<svg version="1.1" id="_x31_00_Мбит_x2F_с_1_" xmlns="http://www.w3.org/2000/svg" xmlns:xlink="http://www.w3.org/1999/xlink"
	 x="0px" y="0px" viewBox="0 0 118 79" style="enable-background:new 0 0 118 79;" xml:space="preserve">
<style type="text/css">
	.st0{fill:#DA0D19;}
</style>
<g id="_x31_00_Мбит_x2F_с">
	<g>
		<path class="st0" d="M16.5,25.3v27.2h14.1V1.1H18.1L0.5,15.5l7.2,8.9l5.8-4.8c1.3-1.1,2.4-2.3,3.2-3.3C16.6,19,16.5,22,16.5,25.3z
			 M56.6,53.2c6.3,0,10.9-2.1,14-6.3c3-4.2,4.6-10.9,4.6-20c0-8.8-1.6-15.4-4.7-19.8c-3.1-4.4-7.8-6.7-13.9-6.7
			c-6.3,0-10.9,2.1-14,6.4c-3,4.3-4.6,11-4.6,20.1c0,8.7,1.6,15.3,4.7,19.7C45.8,51,50.5,53.2,56.6,53.2z M52.9,14.8
			c0.7-2.2,1.9-3.3,3.7-3.3c1.7,0,2.9,1.1,3.7,3.4c0.7,2.3,1.1,6.3,1.1,12c0,5.7-0.4,9.6-1.1,11.9c-0.7,2.3-1.9,3.4-3.7,3.4
			c-1.7,0-2.9-1.1-3.7-3.3c-0.7-2.2-1.1-6.2-1.1-12C51.8,21,52.2,17,52.9,14.8z M98.6,53.2c6.3,0,10.9-2.1,14-6.3
			c3-4.2,4.6-10.9,4.6-20c0-8.8-1.6-15.4-4.7-19.8c-3.1-4.4-7.8-6.7-13.9-6.7c-6.3,0-10.9,2.1-14,6.4c-3,4.3-4.6,11-4.6,20.1
			c0,8.7,1.6,15.3,4.7,19.7C87.8,51,92.5,53.2,98.6,53.2z M94.9,14.8c0.7-2.2,1.9-3.3,3.7-3.3c1.7,0,2.9,1.1,3.7,3.4
			c0.7,2.3,1.1,6.3,1.1,12c0,5.7-0.4,9.6-1.1,11.9c-0.7,2.3-1.9,3.4-3.7,3.4c-1.7,0-2.9-1.1-3.7-3.3c-0.7-2.2-1.1-6.2-1.1-12
			C93.8,21,94.2,17,94.9,14.8z M25.9,73.7L25.9,73.7l-3.8-12.5h-6.3v17.5h4.2v-7.6c0-1.2-0.1-2.9-0.3-5h0.1l3.6,12.6H28l3.5-12.6
			h0.1c-0.1,1.9-0.1,3.1-0.2,3.6c0,0.5,0,0.9,0,1.3v7.7h4.4V61.2h-6.3L25.9,73.7z M50.6,69c-1.3-0.9-3.1-1.3-5.6-1.3h-0.7V65h6.8
			v-3.8H39.5v17.5h5.6c2.4,0,4.2-0.5,5.5-1.5c1.3-1,1.9-2.4,1.9-4.2C52.5,71.3,51.9,69.9,50.6,69z M47.1,74.6
			c-0.4,0.3-1.1,0.5-2.1,0.5h-0.6v-3.8h0.6c1,0,1.7,0.2,2.1,0.5c0.5,0.3,0.7,0.8,0.7,1.4C47.7,73.8,47.5,74.3,47.1,74.6z M59.1,73.5
			L59.1,73.5c0-2.4,0.1-4,0.1-4.8v-7.5H55v17.5h5.8l7.1-12.3H68c-0.1,2.2-0.2,3.9-0.2,5v7.3H72V61.2h-5.9L59.1,73.5z M74.6,65.1h4.3
			v13.7h4.7V65.1h4.3v-3.9H74.6V65.1z M88.7,79h4.2l6.5-18h-4.2L88.7,79z M109.2,64.8c0.7,0,1.4,0.1,2.1,0.3
			c0.6,0.2,1.3,0.5,1.9,0.8l1.5-3.7c-1.7-0.8-3.5-1.2-5.4-1.2c-1.7,0-3.2,0.4-4.5,1.1c-1.3,0.7-2.3,1.8-3,3.2c-0.7,1.4-1,3-1,4.8
			c0,2.9,0.7,5.1,2.1,6.7c1.4,1.5,3.4,2.3,6.1,2.3c1.8,0,3.5-0.3,5-1v-4c-0.7,0.3-1.5,0.6-2.2,0.8c-0.7,0.2-1.5,0.3-2.3,0.3
			c-2.6,0-3.9-1.7-3.9-5.1c0-1.6,0.3-2.9,0.9-3.8C107.2,65.3,108.1,64.8,109.2,64.8z"/>
	</g>
</g>
</svg>
