<?xml version="1.0" encoding="utf-8"?>
<!-- Generator: Adobe Illustrator 24.0.1, SVG Export Plug-In . SVG Version: 6.00 Build 0)  -->
<svg version="1.1" id="Layer_1" xmlns="http://www.w3.org/2000/svg" xmlns:xlink="http://www.w3.org/1999/xlink" x="0px" y="0px"
	 viewBox="0 0 301.7 301.7" style="enable-background:new 0 0 301.7 301.7;" xml:space="preserve">
<style type="text/css">
	.st0{fill:#FFFFFF;}
</style>
<path class="st0" d="M150.9,26.9c-54.5,0-106,20.7-145.2,58.3c-7.4,7.1-7.6,18.8-0.5,26.2c7.1,7.4,18.8,7.6,26.2,0.5
	C63.6,81,106,64,150.9,64c44.8,0,87.2,17,119.5,48c7.3,6.8,18,6.7,26.2-0.6c7.1-7.4,6.8-19.1-0.6-26.2
	C256.8,47.7,205.2,26.9,150.9,26.9z M150.9,90.1c-39.5,0-76.6,15.3-104.4,43c-7.3,7.2-7.3,18.9-0.1,26.2c7.2,7.2,18.9,7.3,26.2,0.1
	c20.9-20.8,48.7-32.2,78.4-32.2c29.6,0,57.4,11.5,78.3,32.3c7.1,6.9,17.9,7,26.2-0.1c7.2-7.3,7.2-19-0.1-26.2
	C227.4,105.5,190.3,90.1,150.9,90.1z M150.9,153.3c-24.4,0-47.7,10.3-64,28.3c-6.9,7.6-6.3,19.3,1.3,26.1c7.6,6.9,19.3,6.3,26.2-1.3
	c9.4-10.4,22.4-16.2,36.6-16.2c13.9,0,27.2,5.9,36.6,16.2c7.2,5.9,16.4,9.2,26.1,1.3c7.6-6.9,8.1-18.6,1.3-26.1
	C198.6,163.7,175.2,153.3,150.9,153.3z M150.9,230.1c-12.3,0-22.4,10-22.4,22.4c0,0,0,0,0,0c0,12.3,10,22.4,22.4,22.4c0,0,0,0,0,0
	c12.3,0,22.4-10,22.4-22.4C173.3,240.1,163.2,230.1,150.9,230.1z"/>
</svg>
