<?xml version="1.0" encoding="utf-8"?>
<!-- Generator: Adobe Illustrator 24.0.1, SVG Export Plug-In . SVG Version: 6.00 Build 0)  -->
<svg version="1.1" id="Layer_2_1_" xmlns="http://www.w3.org/2000/svg" xmlns:xlink="http://www.w3.org/1999/xlink" x="0px" y="0px"
	 viewBox="0 0 301.7 301.7" style="enable-background:new 0 0 301.7 301.7;" xml:space="preserve">
<style type="text/css">
	.st0{display:none;fill:#FFFFFF;stroke:#000000;stroke-width:32;stroke-miterlimit:10;}
	.st1{fill:#FFFFFF;}
</style>
<path class="st0" d="M92.1,87.4v127c0,14,15.1,22.7,27.2,15.7l110-63.5c12.1-7,12.1-24.5,0-31.4l-110-63.5
	C107.3,64.6,92.1,73.4,92.1,87.4z"/>
<path class="st1" d="M237.4,121.3l-110-63.5c-10.7-6.2-23.5-6.2-34.2,0C82.5,63.9,76.1,75,76.1,87.4v127c0,12.3,6.4,23.4,17.1,29.6
	c5.3,3.1,11.2,4.6,17.1,4.6s11.7-1.5,17.1-4.6l110-63.5c10.7-6.2,17.1-17.2,17.1-29.6C254.4,138.5,248,127.4,237.4,121.3z
	 M221.4,152.7l-110,63.5c-0.3,0.2-1.1,0.6-2.2,0s-1.1-1.6-1.1-1.9v-127c0-0.3,0-1.2,1.1-1.9c0.4-0.2,0.8-0.3,1.1-0.3
	c0.5,0,0.9,0.2,1.1,0.3l110,63.5c0.3,0.2,1.1,0.6,1.1,1.9S221.6,152.6,221.4,152.7z"/>
</svg>
