<?xml version="1.0" encoding="utf-8"?>
<!-- Generator: Adobe Illustrator 24.0.1, SVG Export Plug-In . SVG Version: 6.00 Build 0)  -->
<svg version="1.1" id="Layer_1" xmlns="http://www.w3.org/2000/svg" xmlns:xlink="http://www.w3.org/1999/xlink" x="0px" y="0px"
	 viewBox="0 0 800 800" style="enable-background:new 0 0 800 800;" xml:space="preserve">
<style type="text/css">
	.st0{fill:#DA0D19;}
</style>
<g>
	<path class="st0" d="M0,504.3V767c0,19.1,13.9,33,33,33h734c19.1,0,33-13.9,33-33V33c0-19.1-13.9-33-33-33H521.7
		c-19.1,0-33,15.7-33,33v219.1H278.2c-19.1,0-33,15.7-33,33v186.1H33C13.9,471.3,0,487,0,504.3z M556.5,66.1h177.4V734H556.5V66.1z
		 M311.2,733.9V318.2h177.4v415.7H311.4H311.2z M66.1,537.4h177.4V734H66.1V537.4z"/>
</g>
</svg>
