<?xml version="1.0" encoding="utf-8"?>
<!-- Generator: Adobe Illustrator 24.0.1, SVG Export Plug-In . SVG Version: 6.00 Build 0)  -->
<svg version="1.1" id="tech_2_" xmlns="http://www.w3.org/2000/svg" xmlns:xlink="http://www.w3.org/1999/xlink" x="0px" y="0px"
	 viewBox="0 0 592 619" style="enable-background:new 0 0 592 619;" xml:space="preserve">
<style type="text/css">
	.st0{enable-background:new    ;}
	.st1{fill:#35312F;}
	.st2{fill:#3A3735;}
	.st3{fill:#2A2826;}
	.st4{fill:#44403D;}
	.st5{fill:#777777;}
	.st6{fill:#BEBEBE;}
	.st7{fill:#ABABAB;}
	.st8{fill:#868888;}
	.st9{fill:url(#SVGID_1_);}
	.st10{fill:url(#SVGID_2_);}
	.st11{opacity:0.4;fill:#868888;enable-background:new    ;}
	.st12{clip-path:url(#SVGID_4_);fill:#AF0233;}
	.st13{fill:#FF0303;}
	.st14{fill:#535359;}
	.st15{fill:#121214;}
	.st16{fill:#303033;}
	.st17{fill:#BCBEC0;}
	.st18{fill:#24D2C1;}
	.st19{fill:#E31B25;}
	.st20{fill:#E6E7E8;}
	.st21{fill:#FFFFFF;}
	.st22{fill:#D1D3D4;}
	.st23{fill:#939598;}
	.st24{fill:#F1F2F2;}
	.st25{fill:#9C251F;}
	.st26{fill:#EA0C0C;}
</style>
<g id="tech_1_">
	<g id="tech">
		<g id="antenna">
			<g>
				<g class="st0">
					<g>
						<polygon class="st1" points="69.3,168.1 69.3,170.1 66.7,175.8 66.7,173.8 						"/>
					</g>
					<g>
						<polygon class="st2" points="66.7,173.8 66.7,175.8 56.8,177.4 56.8,175.3 						"/>
					</g>
					<g>
						<polygon class="st3" points="56.8,175.3 56.8,177.4 49.6,173.2 49.6,171.1 						"/>
					</g>
					<g>
						<polygon class="st4" points="69.3,168.1 66.7,173.8 56.8,175.3 49.6,171.1 52.2,165.4 62.1,163.9 						"/>
					</g>
				</g>
			</g>
			<g>
				<g class="st0">
					<g>
						<polygon class="st1" points="66.3,147.7 66.3,168.1 64.5,172 64.5,151.7 						"/>
					</g>
					<g>
						<polygon class="st2" points="64.5,151.7 64.5,172 57.6,173.1 57.6,152.7 						"/>
					</g>
					<g>
						<polygon class="st3" points="57.6,152.7 57.6,173.1 52.6,170.2 52.6,149.8 						"/>
					</g>
					<g>
						<polygon class="st4" points="66.3,147.7 64.5,151.7 57.6,152.7 52.6,149.8 54.4,145.9 61.2,144.8 						"/>
					</g>
				</g>
			</g>
			<g>
				<g class="st0">
					<g>
						<polygon class="st5" points="68.1,145.1 61.4,141.2 61.3,119.2 68,123.1 						"/>
					</g>
					<g>
						<polygon class="st6" points="54.4,153.1 47.7,149.2 61.4,141.2 68.1,145.1 						"/>
					</g>
					<g>
						<polygon class="st5" points="48.3,161.8 41.6,157.9 41.5,130.7 48.2,134.6 						"/>
					</g>
					<g>
						<polygon class="st7" points="74.1,119.6 74.2,146.8 48.3,161.8 48.2,134.6 54.3,131.1 54.4,153.1 68.1,145.1 68,123.1 						
							"/>
					</g>
				</g>
			</g>
			<g>
				<g class="st0">
					<path class="st8" d="M93.7,137.5c-3.4,1.6-8.7,4.2-13.3,5.8c-11.1,3.9-14.2-5.3-22.6-8c-13.4-4.2-29.5-5.9-30.3-18.5
						c-0.4,8.4,3,27.8,22.5,35.2c20.9,7.9,39.9-4.9,45.4-12.6C96.2,138.3,95,136.9,93.7,137.5z"/>
					
						<linearGradient id="SVGID_1_" gradientUnits="userSpaceOnUse" x1="34.59" y1="908.8189" x2="80.9456" y2="941.3434" gradientTransform="matrix(1 0 0 1 0 -808)">
						<stop  offset="0" style="stop-color:#CBCDCD"/>
						<stop  offset="0.519" style="stop-color:#B4B8B8"/>
						<stop  offset="1" style="stop-color:#A4A8A8"/>
					</linearGradient>
					<path class="st9" d="M93.7,110.4C83.3,94.8,61.2,87,44.4,92.9S22.5,116.2,33,131.7s32.6,23.3,49.4,17.4
						C99.1,143.3,104.2,125.9,93.7,110.4z"/>
					
						<linearGradient id="SVGID_2_" gradientUnits="userSpaceOnUse" x1="28.1481" y1="927.2318" x2="96.7269" y2="930.8337" gradientTransform="matrix(1 0 0 1 0 -808)">
						<stop  offset="0" style="stop-color:#FAFAFA"/>
						<stop  offset="0.6142" style="stop-color:#B3B8B8"/>
						<stop  offset="0.6701" style="stop-color:#B1B6B6"/>
						<stop  offset="1" style="stop-color:#868888"/>
					</linearGradient>
					<path class="st10" d="M92.8,110.7C82.7,95.6,61.2,88,44.9,93.8c-16.3,5.7-21.3,22.6-11.1,37.7s31.6,22.6,47.9,16.9
						C98,142.6,103,125.8,92.8,110.7z"/>
				</g>
				<path class="st11" d="M82.3,147L64,127.8c0.8-0.8,0.8-2.1,0-3.2c-0.2-0.3-0.5-0.5-0.8-0.8l17.4-24c0.2-0.2,0.2-0.5,0.1-0.7
					c-0.2-0.2-0.5-0.2-0.7-0.1l-17.6,24.3c-0.8-0.3-1.7-0.3-2.4,0c-0.5,0.3-0.8,0.6-1,1.1l-29.3-7.2c-0.3,0.1-0.4,0.3-0.3,0.6
					c0.1,0.3,0.3,0.4,0.6,0.3l28.9,7.3c0,0.5,0.2,1,0.6,1.5c0.9,1.2,2.5,1.8,3.8,1.3l18.1,19c0.1,0.2,0.3,0.4,0.5,0.4H82
					C82.2,147.5,82.3,147.2,82.3,147z"/>
				<path class="st8" d="M82.3,147l-10.4-40l8.8-7.2c0.2-0.2,0.2-0.5,0.1-0.7c-0.2-0.2-0.5-0.2-0.7-0.1l-9,7.4l-41.3,10.8
					c-0.3,0.1-0.4,0.3-0.3,0.6c0.1,0.3,0.3,0.4,0.6,0.3L71,107.4l10.4,39.8c0.1,0.2,0.3,0.4,0.5,0.4H82
					C82.2,147.5,82.3,147.2,82.3,147z"/>
				<g>
					<g class="st0">
						<g class="st0">
							<g>
								<g>
									<g>
										<g>
											<defs>
												<path id="SVGID_3_" d="M75.7,107.2l-1.7,2.3c-0.2,0.2-0.4,0.5-0.7,0.6c-1.3,0.7-3.1,0.1-4.1-1.2c-0.8-1-0.8-2.2-0.2-3
													l1.7-2.3c-0.6,0.8-0.5,2,0.2,3c1,1.3,2.8,1.9,4.1,1.2C75.2,107.6,75.5,107.4,75.7,107.2z"/>
											</defs>
											<clipPath id="SVGID_4_">
												<use xlink:href="#SVGID_3_"  style="overflow:visible;"/>
											</clipPath>
											<path class="st12" d="M74.9,107.8c-1.3,0.7-3.1,0.1-4.1-1.2c-0.8-1-0.8-2.2-0.2-3l-1.7,2.3c-0.6,0.8-0.5,2,0.2,3
												c1,1.3,2.8,1.9,4.1,1.2c0.3-0.2,0.5-0.4,0.7-0.6l1.7-2.3C75.5,107.4,75.2,107.6,74.9,107.8z"/>
										</g>
									</g>
								</g>
							</g>
						</g>
						<g>
							<path class="st13" d="M75.4,104.1c1,1.3,0.7,3-0.5,3.6c-1.3,0.7-3.1,0.1-4.1-1.2c-1-1.3-0.8-3,0.5-3.6
								C72.6,102.3,74.5,102.8,75.4,104.1z"/>
						</g>
					</g>
				</g>
			</g>
		</g>
		<g id="router">
			<g>
				<g>
					<polygon class="st14" points="291.3,242.6 290.6,242.1 291.3,241.8 291.5,241.8 292,242 292,242.2 					"/>
					<polygon class="st15" points="292,242.7 291.3,243.1 291.3,242.6 292,242.2 					"/>
					<polygon class="st16" points="290.6,242.7 291.3,243.1 291.3,242.6 290.6,242.1 					"/>
				</g>
				<g>
					<path d="M291.7,238h-0.8v4.1c0,0.1,0,0.1,0.1,0.2c0.2,0.1,0.4,0.1,0.6,0c0.1,0,0.1-0.1,0.1-0.2l0,0L291.7,238L291.7,238z"/>
					<path class="st14" d="M291.6,238.2c-0.2,0.1-0.4,0.1-0.6,0s-0.2-0.2,0-0.3s0.4-0.1,0.6,0C291.8,238,291.8,238.1,291.6,238.2z"
						/>
					<path class="st16" d="M291.3,223.8c-0.3,0-0.5,0.2-0.5,0.5v13.9c0,0.1,0.1,0.1,0.1,0.2c0.2,0.1,0.5,0.1,0.7,0
						c0.1-0.1,0.1-0.1,0.1-0.2v-13.9C291.8,224,291.6,223.8,291.3,223.8z"/>
				</g>
			</g>
			<g>
				<g>
					<polygon class="st14" points="281,236.6 280.3,236.2 280.9,235.8 281.2,235.8 281.6,236 281.6,236.2 					"/>
					<polygon class="st15" points="281.6,236.8 281,237.1 281,236.6 281.6,236.2 					"/>
					<polygon class="st16" points="280.3,236.7 281,237.1 281,236.6 280.3,236.2 					"/>
				</g>
				<g>
					<path d="M281.4,232.1h-0.8v4.1c0,0.1,0,0.1,0.1,0.2c0.2,0.1,0.4,0.1,0.6,0c0.1,0,0.1-0.1,0.1-0.2l0,0L281.4,232.1L281.4,232.1z
						"/>
					<path class="st14" d="M281.3,232.2c-0.2,0.1-0.4,0.1-0.6,0s-0.2-0.2,0-0.3s0.4-0.1,0.6,0C281.4,232,281.4,232.1,281.3,232.2z"
						/>
					<path class="st16" d="M281,217.8c-0.3,0-0.5,0.2-0.5,0.5v13.9c0,0.1,0,0.1,0.1,0.2c0.2,0.1,0.5,0.1,0.7,0
						c0.1-0.1,0.1-0.1,0.1-0.2v-13.9C281.5,218,281.2,217.8,281,217.8z"/>
				</g>
			</g>
			<g>
				<g>
					<polygon points="283.2,252.3 282.8,252.7 283.2,253.4 293.9,247.3 293.9,246.2 					"/>
				</g>
				<g>
					<path class="st15" d="M274.4,247.8c-3-1.7-8.8-5.6-8.8-5.6v1.1l17.6,10.2v-1.1C283.2,252.3,277.4,249.5,274.4,247.8z"/>
				</g>
			</g>
			<g>
				<path class="st14" d="M290.6,248l-1.7-1.1c0,0-0.1-0.2-0.2-0.2c-2.8-2-8.3-5.6-13.2-8c-3.1-1.4-5.6-2.6-5.6-2.6l5.5-3.2l0.1,0.1
					c3.3,1.3,6.7,2.9,10.2,4.9c3.4,2,6.9,4.3,10.2,6.8l0.1,0.1l-0.4,1.6L290.6,248z"/>
				<path class="st17" d="M282.8,239.6c1.4,0.8,2.7,1.6,4.1,2.5l0.6-0.3c-1.4-0.9-2.7-1.7-4.1-2.5c-1.3-0.8-2.7-1.5-4-2.2l-0.6,0.3
					C280.1,238.1,281.5,238.8,282.8,239.6z"/>
				<path d="M280.3,244.6c-3.4-2-6.9-4.3-10.2-6.8l-0.1-0.1v-1.6l0.1,0.1c3.3,1.3,6.7,2.9,10.2,4.9c3.4,2,6.9,4.3,10.2,6.8l0.1,0.1
					v1.6l-0.1-0.1C287.1,248.2,283.7,246.5,280.3,244.6z"/>
				<polygon class="st15" points="296.1,246.4 290.6,249.5 290.6,248 296.1,244.8 				"/>
			</g>
			<g>
				<path class="st15" d="M264.9,239.9l-0.5-0.1l0.1,1.3c0,0,2.3,1.8,7.6,5.3c0,0,4.5,3.1,12.4,6.3l0.1-0.4c0,0-6.1-3-10.1-5.2
					s-9.4-6.3-9.4-6.3L264.9,239.9z"/>
				<path d="M264.8,240.8c3.2,2.5,6.6,4.7,9.9,6.6c3.3,1.9,6.7,3.6,9.9,4.8v-1.1c-3.2-2.5-6.6-4.7-9.9-6.6c-3.3-1.9-6.7-3.6-9.9-4.8
					V240.8z"/>
				<path class="st14" d="M284.7,251.3l-1.7-1.1c0,0-0.1-0.2-0.2-0.2c-2.8-2-8.3-5.6-13.2-8c-3.1-1.4-5.6-2.6-5.6-2.6l5.5-3.2
					l0.1,0.1c3.3,1.3,6.7,2.9,10.2,4.9c3.4,2,6.9,4.3,10.2,6.8l0.1,0.1l-0.4,1.6L284.7,251.3z"/>
				<path class="st16" d="M274.4,247.9c-3.4-2-6.9-4.3-10.2-6.8l-0.1-0.1v-1.6l0.1,0.1c3.3,1.3,6.7,2.9,10.2,4.9
					c3.4,2,6.9,4.3,10.2,6.8l0.1,0.1v1.6l-0.1-0.1C281.3,251.6,277.8,249.9,274.4,247.9z M264.5,241c3.2,2.5,6.6,4.7,9.9,6.6
					c3.3,1.9,6.7,3.6,9.9,4.8v-1.1c-3.2-2.5-6.6-4.7-9.9-6.6c-3.3-1.9-6.7-3.6-9.9-4.8V241z"/>
				<path class="st18" d="M268.9,242.7c0,0.2-0.1,0.2-0.3,0.2c-0.2-0.1-0.3-0.3-0.3-0.5s0.1-0.2,0.3-0.2
					C268.8,242.3,268.9,242.5,268.9,242.7z"/>
				<path class="st18" d="M270.2,243.4c0,0.2-0.1,0.2-0.3,0.2c-0.2-0.1-0.3-0.3-0.3-0.5s0.1-0.2,0.3-0.2
					C270.1,243,270.2,243.2,270.2,243.4z"/>
				<path class="st18" d="M271.5,244.1c0,0.2-0.1,0.2-0.3,0.2c-0.2-0.1-0.3-0.3-0.3-0.5s0.1-0.2,0.3-0.2
					C271.4,243.8,271.5,244,271.5,244.1z"/>
				<path class="st18" d="M272.7,244.9c0,0.2-0.1,0.2-0.3,0.2c-0.2-0.1-0.3-0.3-0.3-0.5s0.1-0.2,0.3-0.2
					C272.6,244.5,272.7,244.7,272.7,244.9z"/>
				<path class="st18" d="M274,245.6c0,0.2-0.1,0.2-0.3,0.2c-0.2-0.1-0.3-0.3-0.3-0.5s0.1-0.2,0.3-0.2
					C273.9,245.2,274,245.4,274,245.6z"/>
				<path class="st18" d="M275.3,246.3c0,0.2-0.1,0.2-0.3,0.2c-0.2-0.1-0.3-0.3-0.3-0.5s0.1-0.2,0.3-0.2
					C275.2,246,275.3,246.2,275.3,246.3z"/>
				<path class="st18" d="M276.5,247.1c0,0.2-0.1,0.2-0.3,0.2c-0.2-0.1-0.3-0.3-0.3-0.5s0.1-0.2,0.3-0.2
					C276.4,246.7,276.5,246.9,276.5,247.1z"/>
				<path class="st19" d="M279.9,249c0,0.2-0.1,0.2-0.3,0.2c-0.2-0.1-0.3-0.3-0.3-0.5s0.1-0.2,0.3-0.2
					C279.8,248.6,279.9,248.9,279.9,249z"/>
				<polygon class="st15" points="290.2,249.7 284.7,252.9 284.7,251.3 290.2,248.2 				"/>
			</g>
		</g>
		<g id="modem">
			<g>
				<g>
					<path class="st20" d="M54.7,252.7l9.6-5.5c0.6-0.4,1.2-0.4,1.6-0.1l3.6,2.1l-0.4,0.2c0.1,0.2,0.1,0.4,0.1,0.7v23.7
						c0,1.4-1,3.2-2.2,3.9l-9.6,5.5c-0.2,0.1-0.4,0.2-0.5,0.2l-0.2,0.4l-3.5-2l0,0c-0.4-0.2-0.7-0.7-0.7-1.5v-23.7
						C52.4,255.2,53.4,253.5,54.7,252.7z"/>
					<path class="st21" d="M56,282.4v-23.7c0-1.4,1-3.2,2.2-3.9l9.6-5.5c1.2-0.7,2.2-0.1,2.2,1.3v23.7c0,1.4-1,3.2-2.2,3.9l-9.6,5.5
						C57,284.4,56,283.8,56,282.4z"/>
				</g>
				<g>
					<g>
						<path class="st16" d="M66.8,248.7v-0.8h-0.1c-0.1-0.1-0.1-0.2-0.3-0.2c-0.5-0.3-1.2-0.3-1.7,0c-0.1,0.1-0.2,0.1-0.3,0.2h-0.1
							v0.8l0,0c0,0.2,0.1,0.4,0.3,0.5c0.5,0.3,1.2,0.3,1.7,0C66.7,249,66.8,248.8,66.8,248.7z"/>
						<path class="st14" d="M66.4,248.3c-0.5,0.3-1.2,0.3-1.7,0s-0.5-0.7,0-1s1.2-0.3,1.7,0S66.9,248.1,66.4,248.3z"/>
					</g>
					<g>
						<path class="st22" d="M65,243.5h1.3v4.3c0,0.1-0.1,0.2-0.2,0.3c-0.2,0.1-0.6,0.1-0.9,0c-0.1-0.1-0.2-0.2-0.2-0.3l0,0
							C65,247.8,65,243.5,65,243.5z"/>
						<path class="st23" d="M65.1,243.8c0.2,0.1,0.6,0.1,0.9,0c0.2-0.1,0.2-0.4,0-0.5s-0.6-0.1-0.9,0
							C64.9,243.4,64.9,243.6,65.1,243.8z"/>
					</g>
					<g>
						<path class="st22" d="M65.1,241H66v2.4c0,0.1,0,0.1-0.1,0.2c-0.2,0.1-0.4,0.1-0.6,0c-0.1,0-0.1-0.1-0.1-0.2l0,0V241H65.1z"/>
						<path class="st14" d="M65.3,241.2c0.2,0.1,0.4,0.1,0.6,0s0.2-0.3,0-0.4c-0.2-0.1-0.4-0.1-0.6,0
							C65.1,241,65.1,241.1,65.3,241.2z"/>
						<path class="st16" d="M65.6,238.5c0.4,0,0.7,0.3,0.7,0.7v1.8c0,0.1-0.1,0.2-0.2,0.3c-0.3,0.2-0.8,0.2-1.1,0
							c-0.1-0.1-0.2-0.2-0.2-0.3v-1.8C64.8,238.8,65.2,238.5,65.6,238.5z"/>
					</g>
				</g>
				<g>
					<g>
						<path class="st21" d="M57.8,276.2l10.3-2.9v-0.7h2v4.6l0,0c0,1.2-0.8,2.4-2.4,3.3c-2.2,1.3-5.4,1.7-8.3,1.2L57.8,276.2z"/>
						<polygon class="st20" points="59.4,281.7 57.8,280.8 57.8,276.2 59.4,277.1 						"/>
						<path class="st24" d="M68.1,270.2l1.6,0.9c0.8,1.6,0.1,3.5-2.1,4.8s-5.4,1.7-8.3,1.2l-1.6-0.9L68.1,270.2z"/>
					</g>
					<g>
						<polygon class="st21" points="62.1,275.3 59.2,277 58.6,271.4 59.2,267.2 62.1,265.7 						"/>
						<polygon class="st20" points="57.8,276.2 58.1,277.1 59.2,277 59.2,267.2 57.8,266.5 						"/>
					</g>
					<g>
						<path class="st20" d="M66,264.8l3.7-1.8v9.5l0,0c0,1.1-0.8,2.2-2.2,3.1c-2.1,1.2-5,1.6-7.6,1.1v-9.4L66,264.8z"/>
						<path class="st17" d="M69.3,261.7c0.8,1.5,0.1,3.2-1.9,4.4c-2.1,1.2-5,1.6-7.6,1.1L69.3,261.7z"/>
					</g>
					<g>
						<path class="st21" d="M57.8,263.5l10.3-2.9v-0.7h2v3.1l0,0c0,1.2-0.8,2.4-2.4,3.3c-2.2,1.3-5.4,1.7-8.3,1.2L57.8,263.5z"/>
						<polygon class="st20" points="59.4,267.5 57.8,266.5 57.8,263.5 59.4,264.4 						"/>
						<path class="st24" d="M68.1,257.5l1.6,0.9c0.8,1.6,0.1,3.5-2.1,4.8s-5.4,1.7-8.3,1.2l-1.6-0.9L68.1,257.5z"/>
					</g>
				</g>
				<g>
					<path class="st25" d="M61.8,257c0-0.8,0.5-1.7,1.2-2c0.3-0.2,0.6-0.2,0.8-0.1l0.7,0.4l-0.4,0.6c-0.1,0.6-0.5,1.2-0.9,1.6
						l-0.4,0.6l-0.7-0.4l0,0C61.9,257.6,61.8,257.4,61.8,257z"/>
					<path class="st19" d="M62.5,257.4c0,0.8,0.5,1.1,1.2,0.7c0.6-0.4,1.2-1.3,1.2-2c0-0.7-0.5-1.1-1.2-0.7
						C63,255.7,62.5,256.6,62.5,257.4z"/>
				</g>
			</g>
		</g>
	</g>
</g>
<g id="text">
	<g>
		<path class="st26" d="M106.9,84.2l-3.6,2.1l-0.3-9.3c0-1.1-0.1-2.2-0.1-3.1c-0.2,0.5-0.5,1-0.8,1.6l-1.4,2.5l-1.9-2l4.3-7.5
			l3.2-1.8L106.9,84.2z"/>
		<path class="st26" d="M109.9,80.5c0-0.7,0.1-1.4,0.4-2c0.3-0.6,0.8-1.1,1.4-1.4c0.6-0.3,1-0.4,1.4-0.2c0.3,0.2,0.5,0.7,0.5,1.4
			c0,0.7-0.1,1.4-0.4,2c-0.3,0.6-0.8,1.1-1.3,1.4c-0.6,0.3-1.1,0.4-1.4,0.2C110.1,81.7,109.9,81.2,109.9,80.5z"/>
		<path class="st26" d="M128.6,71.7l-0.8-2.9l-4.2,2.4l-0.5,3.7l-3.9,2.2l3.6-20.1l4.7-2.7l4.9,15.2L128.6,71.7z M127,65.3l-0.7-2.6
			c-0.2-0.6-0.3-1.3-0.6-2.2c-0.2-0.9-0.4-1.6-0.4-2c0,0.4-0.1,1.2-0.2,2.2c-0.1,1-0.4,3.1-0.9,6.2L127,65.3z"/>
		<path class="st26" d="M145.1,62.3l-3.5,2l-0.3-7.2l-4.1,2.4l0.3,7.2l-3.5,2l-0.6-17.6l3.5-2l0.2,6.5l4.1-2.4l-0.2-6.5l3.5-2
			L145.1,62.3z"/>
		<path class="st26" d="M153.6,57.4l-3.5,2l-0.5-13.7l-3.2,1.8l-0.1-3.9l9.9-5.7l0.1,3.9l-3.2,1.8L153.6,57.4z"/>
		<path class="st26" d="M166.4,50l-7.8,4.5l-0.6-17.6l7.8-4.5l0.1,3.8l-4.2,2.4l0.1,2.8l3.9-2.2l0.1,3.8l-3.9,2.2l0.1,3.3l4.2-2.4
			L166.4,50z"/>
		<path class="st26" d="M179.9,42.3l-3.5,2l-0.3-7.2l-4.1,2.4l0.3,7.2l-3.5,2l-0.6-17.6l3.5-2l0.2,6.5l4.1-2.4l-0.2-6.5l3.5-2
			L179.9,42.3z"/>
		<path class="st26" d="M193.9,34.2l-3.5,2l-0.3-7.2l-4.1,2.4l0.3,7.2l-3.5,2L182.1,23l3.5-2l0.2,6.5l4.1-2.4l-0.2-6.5l3.5-2
			L193.9,34.2z"/>
		<path class="st26" d="M204.8,28l-0.8-2.9l-4.2,2.4l-0.5,3.7l-3.9,2.2l3.6-20.1l4.7-2.7l4.9,15.2L204.8,28z M203.1,21.6l-0.7-2.6
			c-0.2-0.6-0.3-1.3-0.6-2.2c-0.2-0.9-0.4-1.6-0.4-2c0,0.4-0.1,1.2-0.2,2.2c-0.1,1-0.4,3.1-0.9,6.2L203.1,21.6z"/>
	</g>
	<g>
		<path class="st26" d="M86.4,234.5l-9.5,5.4l-0.1-3.1l3-6.2c0.9-1.8,1.4-3,1.7-3.7c0.3-0.6,0.4-1.1,0.5-1.5
			c0.1-0.4,0.1-0.8,0.1-1.2c0-0.5-0.1-0.8-0.4-0.9c-0.2-0.1-0.5-0.1-0.9,0.1c-0.4,0.2-0.8,0.6-1.2,1.2c-0.4,0.6-0.9,1.3-1.4,2.2
			l-2-1.9c0.6-1.2,1.2-2.1,1.6-2.7c0.4-0.6,0.9-1.2,1.5-1.7c0.5-0.5,1.1-0.9,1.8-1.3c0.8-0.5,1.6-0.7,2.3-0.7c0.7,0,1.2,0.3,1.6,0.8
			c0.4,0.5,0.6,1.3,0.6,2.2c0,0.7,0,1.4-0.1,2c-0.1,0.7-0.3,1.4-0.5,2.1c-0.2,0.7-0.6,1.5-1,2.4c-0.4,0.9-1.3,2.6-2.7,5.2l0,0.1
			l4.9-2.8L86.4,234.5z"/>
		<path class="st26" d="M87.8,231.6c0-0.7,0.1-1.4,0.4-2c0.3-0.6,0.8-1.1,1.4-1.4c0.6-0.3,1-0.4,1.4-0.2c0.3,0.2,0.5,0.7,0.5,1.4
			c0,0.7-0.1,1.4-0.4,2c-0.3,0.6-0.8,1.1-1.3,1.4c-0.6,0.3-1.1,0.4-1.4,0.2C88,232.8,87.8,232.3,87.8,231.6z"/>
		<path class="st26" d="M104.2,224.2l-3.1-11.2l-0.1,0c0.2,2.1,0.3,3.7,0.4,4.9l0.3,7.7l-3.1,1.8l-0.6-17.6l4.7-2.7l3.2,10.9l0.1,0
			l2.2-14l4.7-2.7l0.6,17.6l-3.2,1.9l-0.3-7.7c0-0.4,0-0.9,0-1.3c0-0.5,0-1.7,0-3.7l-0.1,0l-2.2,14.2L104.2,224.2z"/>
		<path class="st26" d="M128.1,201.5c0.1,3-0.4,5.5-1.4,7.7c-1,2.2-2.6,3.8-4.6,5c-2,1.2-3.6,1.3-4.8,0.4s-1.8-2.9-1.9-5.8
			c-0.1-2.9,0.4-5.5,1.4-7.7c1-2.2,2.6-3.9,4.7-5c2.1-1.2,3.7-1.3,4.8-0.4C127.4,196.6,128,198.5,128.1,201.5z M119.1,206.6
			c0.1,3.4,1.1,4.6,2.8,3.6c0.9-0.5,1.5-1.3,1.9-2.4c0.4-1.1,0.6-2.5,0.5-4.2c-0.1-1.8-0.3-2.9-0.8-3.5c-0.5-0.6-1.1-0.6-2-0.1
			C119.8,201,119,203.2,119.1,206.6z"/>
		<path class="st26" d="M144.1,206.9l-3.4,2l-0.2-5.5l-7.6,4.4l0.2,5.5l-3.4,2l-0.3-9.4l1.1-0.6c0.7-2.2,1.3-4.7,1.7-7.3
			c0.4-2.6,0.7-5.3,0.7-8.1l8.7-5l0.5,13.7l1.8-1L144.1,206.9z M138.5,200.6l-0.4-9.8l-2.3,1.3c-0.1,3.6-0.7,7.2-1.7,11L138.5,200.6
			z"/>
		<path class="st26" d="M153.4,196l-7.8,4.5l-0.6-17.6l7.7-4.5l0.1,3.8l-4.2,2.4l0.1,2.8l3.9-2.2l0.1,3.8l-3.9,2.2l0.1,3.3l4.2-2.4
			L153.4,196z"/>
		<path class="st26" d="M161.4,191.4l-3.1-11.2l-0.1,0c0.2,2.1,0.3,3.7,0.4,4.9l0.3,7.7l-3.1,1.8l-0.6-17.6l4.7-2.7l3.2,10.9l0.1,0
			l2.2-14l4.7-2.7l0.6,17.6l-3.2,1.9l-0.3-7.7c0-0.4,0-0.9,0-1.3c0-0.5,0-1.7,0-3.7l-0.1,0l-2.2,14.2L161.4,191.4z"/>
	</g>
	<g>
		<path class="st26" d="M173,258c0,1.1-0.2,2.2-0.6,3.2c-0.5,1.1-1.2,2-2.1,2.9l0,0.1c2.2-0.9,3.3-0.1,3.4,2.3
			c0.1,1.6-0.4,3.2-1.3,4.7c-0.9,1.5-2.2,2.7-4,3.7c-0.7,0.4-1.4,0.7-2,0.9c-0.6,0.2-1.3,0.3-2,0.4l-0.1-4c0.6,0.1,1.2,0,1.8-0.1
			c0.6-0.2,1.1-0.4,1.6-0.7c0.8-0.4,1.3-0.9,1.7-1.4c0.3-0.5,0.5-1.1,0.5-1.7c0-0.5-0.1-0.8-0.3-1c-0.2-0.2-0.5-0.2-0.9-0.1
			s-1,0.3-1.6,0.7l-0.8,0.5l-0.1-3.6l0.8-0.5c1.8-1,2.7-2.2,2.6-3.4c0-0.5-0.2-0.7-0.4-0.8c-0.3-0.1-0.6,0-1.1,0.3
			c-0.8,0.5-1.7,1.4-2.5,2.6l-1.6-2.3c0.7-1,1.4-1.9,2.1-2.6c0.7-0.7,1.5-1.3,2.5-1.8c1.4-0.8,2.4-1,3.2-0.7
			C172.6,256,173,256.7,173,258z"/>
		<path class="st26" d="M175.3,268.7c0-0.7,0.1-1.4,0.4-2c0.3-0.6,0.8-1.1,1.4-1.4c0.6-0.3,1-0.4,1.4-0.2c0.3,0.2,0.5,0.7,0.5,1.4
			c0,0.7-0.1,1.4-0.4,2c-0.3,0.6-0.8,1.1-1.3,1.4c-0.6,0.3-1.1,0.4-1.4,0.2C175.6,269.9,175.4,269.4,175.3,268.7z"/>
		<path class="st26" d="M195.1,247.1c0.1,2-0.3,3.7-1.1,5.3c-0.8,1.6-2,2.8-3.6,3.7l-1,0.6l0.2,5.8l-3.5,2l-0.6-17.6l4.5-2.6
			c1.6-0.9,2.9-1.2,3.8-0.7C194.6,244.2,195.1,245.3,195.1,247.1z M189.3,252.8l0.6-0.4c0.5-0.3,0.9-0.7,1.2-1.3
			c0.3-0.6,0.4-1.2,0.4-1.9c0-1.2-0.6-1.5-1.5-0.9l-0.9,0.5L189.3,252.8z"/>
		<path class="st26" d="M209.5,242.1c0.1,3-0.4,5.5-1.4,7.7c-1,2.2-2.6,3.8-4.6,5c-2,1.2-3.6,1.3-4.8,0.4c-1.1-0.9-1.8-2.9-1.9-5.8
			c-0.1-2.9,0.4-5.5,1.4-7.7c1-2.2,2.6-3.9,4.7-5c2.1-1.2,3.7-1.3,4.8-0.4C208.8,237.2,209.4,239.1,209.5,242.1z M200.6,247.2
			c0.1,3.4,1.1,4.6,2.8,3.6c0.9-0.5,1.5-1.3,1.9-2.4c0.4-1.1,0.6-2.5,0.5-4.2c-0.1-1.8-0.3-2.9-0.8-3.5c-0.5-0.6-1.1-0.6-2-0.1
			C201.3,241.6,200.4,243.8,200.6,247.2z"/>
		<path class="st26" d="M213.9,248.8c-0.8,0.5-1.6,0.8-2.3,1l-0.1-3.8c0.6,0,1.3-0.3,2.1-0.8c0.4-0.2,0.7-0.5,0.9-0.9
			c0.2-0.4,0.4-0.9,0.6-1.6l-4.7-10.2l3.8-2.2l1.8,4.5c0.1,0.2,0.1,0.4,0.2,0.6c0.1,0.2,0.2,0.5,0.3,0.8c0.1,0.3,0.2,0.5,0.3,0.8
			c0.1,0.3,0.1,0.5,0.2,0.7l0.1-0.1c0.2-1.2,0.4-2.7,0.8-4.4l1.2-5.7l3.8-2.2l-3.5,14.6c-0.4,1.8-0.9,3.2-1.3,4.2
			c-0.4,1-1,1.9-1.7,2.6C215.7,247.6,214.9,248.3,213.9,248.8z"/>
		<path class="st26" d="M230.4,239.1l-3.5,2l-0.5-13.7l-3.2,1.8l-0.1-3.9l9.9-5.7l0.1,3.9l-3.2,1.8L230.4,239.1z"/>
		<path class="st26" d="M243.2,231.8l-7.7,4.5l-0.6-17.6l7.7-4.5l0.1,3.8l-4.2,2.4l0.1,2.8l3.9-2.2l0.1,3.8l-3.9,2.2l0.1,3.3
			l4.2-2.4L243.2,231.8z"/>
		<path class="st26" d="M254.6,213c0.1,2-0.3,3.7-1.1,5.3c-0.8,1.6-2,2.8-3.6,3.7l-1,0.6l0.2,5.8l-3.5,2l-0.6-17.6l4.5-2.6
			c1.6-0.9,2.9-1.2,3.8-0.7S254.5,211.2,254.6,213z M248.7,218.7l0.6-0.4c0.5-0.3,0.9-0.7,1.2-1.3c0.3-0.6,0.4-1.2,0.4-1.9
			c0-1.2-0.6-1.5-1.5-0.9l-0.9,0.5L248.7,218.7z"/>
	</g>
</g>
</svg>
