<?xml version="1.0" encoding="utf-8"?>
<!-- Generator: Adobe Illustrator 24.0.1, SVG Export Plug-In . SVG Version: 6.00 Build 0)  -->
<svg version="1.1" id="line" xmlns="http://www.w3.org/2000/svg" xmlns:xlink="http://www.w3.org/1999/xlink" x="0px" y="0px"
	 viewBox="0 0 592 619" style="enable-background:new 0 0 592 619;" xml:space="preserve">
<style type="text/css">
	.st0{fill:none;stroke:#EA0C0C;stroke-width:4;stroke-linecap:round;stroke-linejoin:round;stroke-miterlimit:10;}
</style>
<path class="st0" d="M345.1,156.6c0-25.5-22.6-42.2-50.1-42.2c-2.4,0-4.8,0.2-7.2,0.5c0.1-1.2,0.5-6.5,0.5-7.8
	c0-25.5-22.3-46.2-49.8-46.2c-5.3,0-10.3,0.8-15.1,2.2c-11.2-26.4-38.9-45-71.3-45C109.9,18,75.6,49.8,75.5,89
	c-38.5-4.1-64.1,25.4-64.1,56.9c0,31.4,27.5,56.9,61.3,56.9h222.6c17,0,32-5,41-16.7c6.6-8.6,16.7-13.9,27.6-13.9h109.6
	c19.6,0,35.5,15.9,35.5,35.5V388L253.9,528L26.5,397.9L207.1,293"/>
</svg>
