<?xml version="1.0" encoding="utf-8"?>
<!-- Generator: Adobe Illustrator 24.0.1, SVG Export Plug-In . SVG Version: 6.00 Build 0)  -->
<svg version="1.1" id="tech_1_" xmlns="http://www.w3.org/2000/svg" xmlns:xlink="http://www.w3.org/1999/xlink" x="0px" y="0px"
	 viewBox="0 0 592 619" style="enable-background:new 0 0 592 619;" xml:space="preserve">
<style type="text/css">
	.st0{fill:#EA0C0C;}
	.st1{enable-background:new    ;}
	.st2{fill:#990000;}
	.st3{fill:#BCBEC0;}
	.st4{fill:#FFFFFF;}
	.st5{fill:#303033;}
	.st6{fill:#535359;}
	.st7{fill:#E6E7E8;}
	.st8{fill:#0A8074;}
	.st9{fill:#24D2C1;}
	.st10{fill:#35312F;}
	.st11{fill:#3A3735;}
	.st12{fill:#2A2826;}
	.st13{fill:#44403D;}
	.st14{fill:#777777;}
	.st15{fill:#BEBEBE;}
	.st16{fill:#ABABAB;}
	.st17{fill:#868888;}
	.st18{fill:url(#SVGID_1_);}
	.st19{fill:url(#SVGID_2_);}
	.st20{opacity:0.4;fill:#868888;enable-background:new    ;}
	.st21{clip-path:url(#SVGID_4_);fill:#AF0233;}
	.st22{fill:#FF0303;}
	.st23{fill:#121214;}
	.st24{fill:#E31B25;}
	.st25{fill:#001759;}
	.st26{fill:#568BD8;}
	.st27{fill:#112F82;}
</style>
<g id="dots">
	
		<ellipse transform="matrix(0.3051 -0.9523 0.9523 0.3051 19.8271 384.6978)" class="st0" cx="273.5" cy="178.8" rx="11.7" ry="8.2"/>
	<g class="st1">
		<path class="st0" d="M98.4,91.6l-3.6,2.1l-0.3-9.3c0-1.1-0.1-2.2-0.1-3.1c-0.2,0.5-0.5,1-0.8,1.6l-1.4,2.5l-1.9-2l4.3-7.5l3.2-1.8
			L98.4,91.6z"/>
		<path class="st0" d="M101.4,87.8c0-0.7,0.1-1.4,0.4-2s0.8-1.1,1.4-1.4s1-0.4,1.4-0.2c0.3,0.2,0.5,0.7,0.5,1.4c0,0.7-0.1,1.4-0.4,2
			s-0.8,1.1-1.3,1.4c-0.6,0.3-1.1,0.4-1.4,0.2C101.6,89,101.4,88.5,101.4,87.8z"/>
		<path class="st0" d="M120.1,79.1l-0.8-2.9l-4.2,2.4l-0.5,3.7l-3.9,2.2l3.6-20.1l4.7-2.7l4.9,15.2L120.1,79.1z M118.5,72.6
			l-0.7-2.6c-0.2-0.6-0.3-1.3-0.6-2.2c-0.2-0.9-0.4-1.6-0.4-2c0,0.4-0.1,1.2-0.2,2.2s-0.4,3.1-0.9,6.2L118.5,72.6z"/>
		<path class="st0" d="M136.6,69.6l-3.5,2l-0.3-7.2l-4.1,2.4L129,74l-3.5,2l-0.6-17.6l3.5-2l0.2,6.5l4.1-2.4l-0.2-6.5l3.5-2
			L136.6,69.6z"/>
		<path class="st0" d="M145.2,64.7l-3.5,2L141.2,53l-3.2,1.8l-0.1-3.9l9.9-5.7l0.1,3.9l-3.2,1.8L145.2,64.7z"/>
		<path class="st0" d="M158,57.3l-7.8,4.5l-0.6-17.6l7.8-4.5l0.1,3.8l-4.2,2.4l0.1,2.8l3.9-2.2l0.1,3.8l-3.9,2.2l0.1,3.3l4.2-2.4
			L158,57.3z"/>
		<path class="st0" d="M171.4,49.6l-3.5,2l-0.3-7.2l-4.1,2.4l0.3,7.2l-3.5,2l-0.6-17.6l3.5-2l0.2,6.5l4.1-2.4l-0.2-6.5l3.5-2
			L171.4,49.6z"/>
		<path class="st0" d="M185.5,41.6l-3.5,2l-0.3-7.2l-4.1,2.4l0.3,7.2l-3.5,2l-0.6-17.6l3.5-2l0.2,6.5l4.1-2.4l-0.2-6.5l3.5-2
			L185.5,41.6z"/>
		<path class="st0" d="M196.3,35.3l-0.8-2.9l-4.2,2.4l-0.5,3.7l-3.9,2.2l3.6-20.1l4.7-2.7l4.9,15.2L196.3,35.3z M194.7,28.9
			l-0.7-2.6c-0.2-0.6-0.3-1.3-0.6-2.2c-0.2-0.9-0.4-1.6-0.4-2c0,0.4-0.1,1.2-0.2,2.2c-0.1,1-0.4,3.1-0.9,6.2L194.7,28.9z"/>
	</g>
	<g class="st1">
		<path class="st0" d="M95.3,251.6l-9.5,5.4l-0.1-3.1l3-6.2c0.9-1.8,1.4-3,1.7-3.7c0.3-0.6,0.4-1.1,0.5-1.5s0.1-0.8,0.1-1.2
			c0-0.5-0.1-0.8-0.4-0.9c-0.2-0.1-0.5-0.1-0.9,0.1c-0.4,0.2-0.8,0.6-1.2,1.2c-0.4,0.6-0.9,1.3-1.4,2.2l-2-1.9
			c0.6-1.2,1.2-2.1,1.6-2.7c0.4-0.6,0.9-1.2,1.5-1.7c0.5-0.5,1.1-0.9,1.8-1.3c0.8-0.5,1.6-0.7,2.3-0.7s1.2,0.3,1.6,0.8
			s0.6,1.3,0.6,2.2c0,0.7,0,1.4-0.1,2c-0.1,0.7-0.3,1.4-0.5,2.1c-0.2,0.7-0.6,1.5-1,2.4s-1.3,2.6-2.7,5.2v0.1l4.9-2.8L95.3,251.6z"
			/>
		<path class="st0" d="M96.7,248.8c0-0.7,0.1-1.4,0.4-2s0.8-1.1,1.4-1.4c0.6-0.3,1-0.4,1.4-0.2c0.3,0.2,0.5,0.7,0.5,1.4
			s-0.1,1.4-0.4,2s-0.8,1.1-1.3,1.4c-0.6,0.3-1.1,0.4-1.4,0.2C96.9,250,96.8,249.5,96.7,248.8z"/>
		<path class="st0" d="M116.5,227.2c0.1,2-0.3,3.7-1.1,5.3c-0.8,1.6-2,2.8-3.6,3.7l-1,0.6l0.2,5.8l-3.5,2l-0.6-17.6l4.5-2.6
			c1.6-0.9,2.9-1.2,3.8-0.7C116,224.3,116.5,225.4,116.5,227.2z M110.7,232.9l0.6-0.4c0.5-0.3,0.9-0.7,1.2-1.3s0.4-1.2,0.4-1.9
			c0-1.2-0.6-1.5-1.5-0.9l-0.9,0.5L110.7,232.9z"/>
		<path class="st0" d="M126.8,233.6L119,238l-0.6-17.6l7.8-4.5l0.1,3.8l-4.2,2.4l0.1,2.8l3.9-2.2l0.1,3.8l-3.9,2.2l0.1,3.3l4.2-2.4
			L126.8,233.6z"/>
		<path class="st0" d="M139.8,226.1l-3.6,2l-0.5-13.7l-3.6,2.1l0.5,13.7l-3.5,2l-0.6-17.6l10.7-6.1L139.8,226.1z"/>
		<path class="st0" d="M141.9,206.9l3.1-1.8l0.3,7.6c0,0.8,0,2.4,0,4.9h0.1l4.8-15.4l4.4-2.5l0.6,17.6l-3.1,1.8l-0.3-7.4
			c0-1.1,0-2.8,0-5.1h-0.1l-4.8,15.4l-4.3,2.5L141.9,206.9z"/>
		<path class="st0" d="M163.8,212.3l-3.5,2l-0.5-13.7l-3.2,1.8l-0.1-3.9l9.9-5.7l0.1,3.9l-3.2,1.8L163.8,212.3z"/>
		<path class="st0" d="M176.6,205l-7.8,4.5l-0.6-17.6l7.8-4.5l0.1,3.8l-4.2,2.4l0.1,2.8l3.9-2.2l0.1,3.8l-3.9,2.2l0.1,3.3l4.2-2.4
			L176.6,205z"/>
		<path class="st0" d="M187.9,186.2c0.1,2-0.3,3.7-1.1,5.3s-2,2.8-3.6,3.7l-1,0.6l0.2,5.8l-3.5,2l-0.6-17.6l4.5-2.6
			c1.6-0.9,2.9-1.2,3.8-0.7C187.4,183.3,187.9,184.4,187.9,186.2z M182.1,191.9l0.6-0.4c0.5-0.3,0.9-0.7,1.2-1.3s0.4-1.2,0.4-1.9
			c0-1.2-0.6-1.5-1.5-0.9l-0.9,0.5L182.1,191.9z"/>
	</g>
	<g class="st1">
		<path class="st0" d="M156.7,148.9c0,1.1-0.2,2.2-0.6,3.2c-0.5,1.1-1.2,2-2.1,2.9v0.1c2.2-0.9,3.3-0.1,3.4,2.3
			c0.1,1.6-0.4,3.2-1.3,4.7c-0.9,1.5-2.2,2.7-4,3.7c-0.7,0.4-1.4,0.7-2,0.9s-1.3,0.3-2,0.4l-0.1-4c0.6,0.1,1.2,0,1.8-0.1
			c0.6-0.2,1.1-0.4,1.6-0.7c0.8-0.4,1.3-0.9,1.7-1.4c0.3-0.5,0.5-1.1,0.5-1.7c0-0.5-0.1-0.8-0.3-1s-0.5-0.2-0.9-0.1
			c-0.4,0.1-1,0.3-1.6,0.7l-0.8,0.5l-0.1-3.6l0.8-0.5c1.8-1,2.7-2.2,2.6-3.4c0-0.5-0.2-0.7-0.4-0.8c-0.3-0.1-0.6,0-1.1,0.3
			c-0.8,0.5-1.7,1.4-2.5,2.6l-1.6-2.3c0.7-1,1.4-1.9,2.1-2.6c0.7-0.7,1.5-1.3,2.5-1.8c1.4-0.8,2.4-1,3.2-0.7
			C156.3,146.9,156.7,147.7,156.7,148.9z"/>
		<path class="st0" d="M159.1,159.6c0-0.7,0.1-1.4,0.4-2c0.3-0.6,0.8-1.1,1.4-1.4c0.6-0.3,1-0.4,1.4-0.2c0.3,0.2,0.5,0.7,0.5,1.4
			s-0.1,1.4-0.4,2c-0.3,0.6-0.8,1.1-1.3,1.4c-0.6,0.3-1.1,0.4-1.4,0.2C159.3,160.8,159.1,160.4,159.1,159.6z"/>
		<path class="st0" d="M169.2,137.9l4.6-2.6c1.8-1,3.1-1.4,4-1.2s1.4,1.1,1.4,2.6c0,1-0.1,1.9-0.5,2.9c-0.4,0.9-0.8,1.6-1.4,2.2v0.1
			c0.8-0.2,1.4,0,1.8,0.4c0.4,0.5,0.6,1.2,0.6,2.3c0.1,1.6-0.3,3.1-1.2,4.5s-2.1,2.6-3.6,3.5l-5.1,2.9L169.2,137.9z M173,142.6
			l1.1-0.6c0.5-0.3,0.9-0.7,1.2-1.1c0.3-0.4,0.4-0.9,0.4-1.5c0-1-0.6-1.2-1.7-0.5l-1,0.6V142.6z M173.1,146.1l0.1,3.7l1.2-0.7
			c1.1-0.6,1.6-1.6,1.6-2.8c0-0.6-0.2-1-0.5-1.1s-0.7-0.1-1.3,0.3L173.1,146.1z"/>
		<path class="st0" d="M193.3,142l-3.5,2l-0.3-7.2l-4.1,2.4l0.3,7.2l-3.5,2l-0.6-17.6l3.5-2l0.2,6.5l4.1-2.4l-0.2-6.5l3.5-2
			L193.3,142z"/>
		<path class="st0" d="M197.8,139.7c-0.8,0.5-1.6,0.8-2.3,1l-0.1-3.8c0.6,0,1.3-0.3,2.1-0.8c0.4-0.2,0.7-0.5,0.9-0.9
			s0.4-0.9,0.6-1.6l-4.7-10.2l3.8-2.2l1.8,4.5c0.1,0.2,0.1,0.4,0.2,0.6c0.1,0.2,0.2,0.5,0.3,0.8s0.2,0.5,0.3,0.8
			c0.1,0.3,0.1,0.5,0.2,0.7l0.1-0.1c0.2-1.2,0.4-2.7,0.8-4.4l1.2-5.7l3.8-2.2l-3.5,14.6c-0.4,1.8-0.9,3.2-1.3,4.2
			c-0.4,1-1,1.9-1.7,2.6C199.6,138.5,198.8,139.1,197.8,139.7z"/>
		<path class="st0" d="M214.4,129.9l-3.5,2l-0.5-13.7l-3.2,1.8l-0.1-3.9l9.9-5.7l0.1,3.9l-3.2,1.8L214.4,129.9z"/>
		<path class="st0" d="M228.4,109.6c0.1,2-0.3,3.7-1.1,5.3s-2,2.8-3.6,3.7l-1,0.6l0.2,5.8l-3.5,2l-0.6-17.6l4.5-2.6
			c1.6-0.9,2.9-1.2,3.8-0.7C227.9,106.6,228.4,107.8,228.4,109.6z M222.6,115.3l0.6-0.4c0.5-0.3,0.9-0.7,1.2-1.3
			c0.3-0.6,0.4-1.2,0.4-1.9c0-1.2-0.6-1.5-1.5-0.9l-0.9,0.5L222.6,115.3z"/>
		<path class="st0" d="M238.7,115.9l-7.8,4.5l-0.6-17.6l7.8-4.5l0.1,3.8l-4.2,2.4l0.1,2.8l3.9-2.2l0.1,3.8l-3.9,2.2l0.1,3.3l4.2-2.4
			L238.7,115.9z"/>
		<path class="st0" d="M252.2,108.2l-3.5,2l-0.3-7.2l-4.1,2.4l0.3,7.2l-3.5,2L240.4,97l3.5-2l0.2,6.5l4.1-2.4l-0.2-6.5l3.5-2
			L252.2,108.2z"/>
		<path class="st0" d="M266.2,100.2l-3.5,2l-0.3-7.2l-4.1,2.4l0.3,7.2l-3.5,2L254.4,89l3.5-2l0.2,6.5l4.1-2.4l-0.2-6.5l3.5-2
			L266.2,100.2z"/>
		<path class="st0" d="M268.4,80.9l3.1-1.8l0.3,7.6c0,0.8,0,2.4,0,4.9h0.1l4.8-15.4l4.4-2.5l0.6,17.6l-3.1,1.8l-0.3-7.4
			c0-1.1,0-2.8,0-5.1h-0.1L273.4,96l-4.3,2.5L268.4,80.9z"/>
		<path class="st0" d="M292.2,85.2l-7.8,4.5L283.8,72l7.8-4.5l0.1,3.8l-4.2,2.4l0.1,2.8l3.9-2.2l0.1,3.8l-3.9,2.2l0.1,3.3l4.2-2.4
			L292.2,85.2z"/>
	</g>
	<g class="st1">
		<path class="st2" d="M309.7,89.7l-0.7-4l-3.9-2.4l-0.5,3.3l-3.6-2.2l3.5-17.3l4.4,2.7l4.5,22.2L309.7,89.7z M308.2,80.8l-0.6-3.5
			c-0.1-0.8-0.3-1.8-0.5-3.1c-0.2-1.2-0.3-2.1-0.4-2.7c0,0.4-0.1,1.1-0.2,2.1s-0.4,2.8-0.8,5.6L308.2,80.8z"/>
		<path class="st2" d="M325,99l-3.3-2l-0.2-8l-3.8-2.3l0.2,8l-3.3-2L314.1,73l3.3,2l0.2,7.3l3.8,2.3l-0.2-7.3l3.3,2L325,99z"/>
		<path class="st2" d="M332.9,103.8l-3.3-2l-0.4-15.3l-3-1.8l-0.1-4.3l9.2,5.6l0.1,4.3l-2.9-1.8L332.9,103.8z"/>
		<path class="st2" d="M344.8,111l-7.2-4.4L337.1,87l7.2,4.4l0.1,4.3l-3.9-2.4l0.1,3.1l3.6,2.2l0.1,4.3l-3.6-2.2l0.1,3.7l3.9,2.4
			L344.8,111z"/>
		<path class="st2" d="M357.3,118.6l-3.3-2l-0.2-8l-3.8-2.3l0.2,8l-3.3-2l-0.5-19.7l3.3,2l0.2,7.3l3.8,2.3l-0.2-7.3l3.3,2
			L357.3,118.6z"/>
		<path class="st2" d="M370.3,126.6l-3.3-2l-0.2-8l-3.8-2.3l0.2,8l-3.3-2l-0.5-19.7l3.3,2l0.2,7.3l3.8,2.3l-0.2-7.3l3.3,2
			L370.3,126.6z"/>
		<path class="st2" d="M381.4,126.9c0.1,2.1-0.3,3.4-1.2,4c-0.9,0.6-2.1,0.4-3.7-0.6l-3.6-2.2l-0.5-19.7l3.3,2l0.2,7l0.2,0.1
			c1.7,1,3,2.3,3.9,3.9C380.9,123.1,381.4,124.9,381.4,126.9z M376.1,126.1l0.1,0.1c1.3,0.8,1.9,0.4,1.9-1.1s-0.7-2.6-2-3.4
			l-0.1-0.1L376.1,126.1z M386,136.1l-3.3-2l-0.5-19.7l3.3,2L386,136.1z"/>
	</g>
</g>
<g>
	<g>
		<path class="st3" d="M420.3,151.9l-17.5-10.1c-1-0.6-1.9-0.6-2.5-0.3l0,0l-1.2,0.7l0.3,0.5c-0.1,0.4-0.2,0.8-0.2,1.2v20.2
			c0,2.3,1.6,5.1,3.6,6.3l17.5,10.1c0.4,0.2,0.8,0.4,1.1,0.4l0.3,0.5l1.2-0.7c0.7-0.4,1.1-1.2,1.1-2.3v-20.2
			C423.9,155.9,422.3,153.1,420.3,151.9z"/>
		<path class="st4" d="M422.8,179c0,2.3-1.6,3.2-3.6,2.1L401.8,171c-2-1.2-3.6-4-3.6-6.3v-20.2c0-2.3,1.6-3.2,3.6-2.1l17.5,10.1
			c2,1.2,3.6,4,3.6,6.3V179H422.8z"/>
	</g>
	<g>
		<path class="st5" d="M419.4,152.2l-17.5-10.1c-1.1-0.6-2.1-0.7-2.8-0.3l0,0l0,0l0,0l-2.7,1.6l1.6,2.7v18.4c0,2.5,1.8,5.6,3.9,6.8
			l15.7,9.1l1.7,2.9l2.9-1.7c0.6-0.4,1-1.3,1-2.5V159C423.3,156.5,421.6,153.4,419.4,152.2z"/>
		<polygon points="422.4,176.6 421.8,177 421.8,163.5 422.4,163.2 		"/>
		<path class="st6" d="M416.7,183l-17.5-10.1c-2.2-1.2-3.9-4.3-3.9-6.8v-20.2c0-2.5,1.8-3.5,3.9-2.3l17.5,10.1
			c2.2,1.3,3.9,4.3,3.9,6.8v20.2C420.7,183.2,418.9,184.2,416.7,183z"/>
	</g>
	<g>
		<path class="st3" d="M416.7,154.1L399.3,144c-1-0.6-1.9-0.6-2.5-0.3l0,0l-1.2,0.7l0.3,0.5c-0.1,0.4-0.2,0.8-0.2,1.2v20.2
			c0,2.3,1.6,5.1,3.6,6.3l17.5,10.1c0.4,0.2,0.8,0.4,1.1,0.4l0.3,0.5l1.2-0.7c0.7-0.4,1.1-1.2,1.1-2.3v-20.2
			C420.4,158.1,418.7,155.2,416.7,154.1z"/>
		<path class="st4" d="M419.3,181.2c0,2.3-1.6,3.2-3.6,2.1l-17.5-10.1c-2-1.2-3.6-4-3.6-6.3v-20.2c0-2.3,1.6-3.2,3.6-2.1l17.5,10.1
			c2,1.1,3.6,4,3.6,6.3V181.2z"/>
	</g>
	<path class="st7" d="M409.4,162.1l-0.3-0.2c0-0.1,0-0.2,0-0.3c0-0.5-0.4-1.2-0.9-1.5c-0.2-0.1-0.4-0.1-0.5-0.1
		c-0.2-1-0.8-2-1.6-2.5c-0.9-0.5-1.7-0.1-1.7,1c0,0.2,0,0.5,0.1,0.7l-0.1-0.1c-0.9-0.5-1.7-0.1-1.7,1s0.8,2.4,1.7,2.9l4.9,2.8
		c0.9,0.5,1.7,0.1,1.7-1C411,164,410.3,162.7,409.4,162.1z"/>
	<g>
		<path class="st8" d="M403.2,151.1c0-0.3-0.2-0.7-0.5-0.9c-0.1-0.1-0.3-0.1-0.4,0l-0.2,0.1l0.1,0.1v0.1c0,0.3,0.2,0.7,0.5,0.9h0.1
			l0.1,0.1l0.2-0.1l0,0C403.2,151.4,403.2,151.3,403.2,151.1z"/>
		<path class="st9" d="M403,151.2c0,0.3-0.2,0.5-0.5,0.3s-0.5-0.6-0.5-0.9c0-0.3,0.2-0.5,0.5-0.3S403,150.9,403,151.2z"/>
	</g>
	<g>
		<path class="st8" d="M406,152.7c0-0.3-0.2-0.7-0.5-0.9c-0.1-0.1-0.3-0.1-0.4,0l-0.2,0.1l0.1,0.1v0.1c0,0.3,0.2,0.7,0.5,0.9h0.1
			l0.1,0.1l0.2-0.1l0,0C406,153,406,152.9,406,152.7z"/>
		<path class="st9" d="M405.8,152.8c0,0.3-0.2,0.5-0.5,0.3s-0.5-0.6-0.5-0.9c0-0.3,0.2-0.5,0.5-0.3
			C405.6,152.1,405.8,152.5,405.8,152.8z"/>
	</g>
	<g>
		<path class="st8" d="M408.8,154.3c0-0.3-0.2-0.7-0.5-0.9c-0.1-0.1-0.3-0.1-0.4,0l-0.2,0.1l0.1,0.1v0.1c0,0.3,0.2,0.7,0.5,0.9h0.1
			l0.1,0.1l0.2-0.1l0,0C408.8,154.6,408.8,154.5,408.8,154.3z"/>
		<path class="st9" d="M408.6,154.5c0,0.3-0.2,0.5-0.5,0.3s-0.5-0.6-0.5-0.9c0-0.3,0.2-0.5,0.5-0.3
			C408.4,153.7,408.6,154.1,408.6,154.5z"/>
	</g>
	<g>
		<path class="st8" d="M411.6,156c0-0.3-0.2-0.8-0.5-0.9c-0.1-0.1-0.3-0.1-0.4,0l-0.2,0.1l0.1,0.1v0.1c0,0.3,0.2,0.7,0.5,0.9h0.1
			l0.1,0.1l0.2-0.1l0,0C411.6,156.2,411.6,156.1,411.6,156z"/>
		<path class="st9" d="M411.4,156.1c0,0.3-0.2,0.5-0.5,0.3s-0.5-0.6-0.5-0.9c0-0.3,0.2-0.5,0.5-0.3
			C411.2,155.3,411.4,155.7,411.4,156.1z"/>
	</g>
	<g>
		<path class="st9" d="M406.9,168.8c-0.7-0.4-1.3-0.4-1.8-0.1c-0.1,0.1-0.1,0.3,0,0.4c0.1,0.2,0.3,0.3,0.4,0.2
			c0.4-0.2,0.9-0.2,1.4,0.1s1,0.8,1.4,1.5c0.1,0.2,0.3,0.3,0.4,0.2c0,0,0.1-0.1,0.1-0.2c0-0.1,0-0.2-0.1-0.3
			C408.2,169.9,407.6,169.2,406.9,168.8z"/>
		<path class="st9" d="M410.1,169.2c-0.8-1.3-2-2.6-3.1-3.3c-1.2-0.7-2.4-0.8-3.2-0.4c-0.1,0.1-0.1,0.3,0,0.4
			c0.1,0.2,0.3,0.3,0.4,0.2c0.7-0.4,1.8-0.2,2.8,0.3c1,0.6,2.1,1.7,2.8,2.9c0.1,0.2,0.3,0.3,0.4,0.2c0,0,0.1-0.1,0.1-0.2
			C410.2,169.4,410.1,169.3,410.1,169.2z"/>
		<path class="st9" d="M406.9,167.3c-0.9-0.5-1.8-0.6-2.5-0.2c-0.1,0.1-0.1,0.3,0,0.4c0.1,0.2,0.3,0.3,0.4,0.2
			c0.5-0.3,1.3-0.3,2.1,0.2c0.7,0.4,1.5,1.3,2.1,2.3c0.1,0.2,0.3,0.3,0.4,0.2c0,0,0.1-0.1,0.1-0.2c0-0.1,0-0.2-0.1-0.3
			C408.7,168.8,407.7,167.8,406.9,167.3z"/>
		<path class="st9" d="M406.9,170.4c-0.4-0.2-0.8,0-0.8,0.5s0.4,1.1,0.8,1.4c0.4,0.2,0.8,0,0.8-0.5
			C407.7,171.3,407.3,170.6,406.9,170.4z"/>
	</g>
</g>
<g id="tech">
	<g id="antenna">
		<g>
			<g class="st1">
				<g>
					<polygon class="st10" points="69.3,168.1 69.3,170.1 66.7,175.8 66.7,173.8 					"/>
				</g>
				<g>
					<polygon class="st11" points="66.7,173.8 66.7,175.8 56.8,177.4 56.8,175.3 					"/>
				</g>
				<g>
					<polygon class="st12" points="56.8,175.3 56.8,177.4 49.6,173.2 49.6,171.1 					"/>
				</g>
				<g>
					<polygon class="st13" points="69.3,168.1 66.7,173.8 56.8,175.3 49.6,171.1 52.2,165.4 62.1,163.9 					"/>
				</g>
			</g>
		</g>
		<g>
			<g class="st1">
				<g>
					<polygon class="st10" points="66.3,147.7 66.3,168.1 64.5,172 64.5,151.7 					"/>
				</g>
				<g>
					<polygon class="st11" points="64.5,151.7 64.5,172 57.6,173.1 57.6,152.7 					"/>
				</g>
				<g>
					<polygon class="st12" points="57.6,152.7 57.6,173.1 52.6,170.2 52.6,149.8 					"/>
				</g>
				<g>
					<polygon class="st13" points="66.3,147.7 64.5,151.7 57.6,152.7 52.6,149.8 54.4,145.9 61.2,144.8 					"/>
				</g>
			</g>
		</g>
		<g>
			<g class="st1">
				<g>
					<polygon class="st14" points="68.1,145.1 61.4,141.2 61.3,119.2 68,123.1 					"/>
				</g>
				<g>
					<polygon class="st15" points="54.4,153.1 47.7,149.2 61.4,141.2 68.1,145.1 					"/>
				</g>
				<g>
					<polygon class="st14" points="48.3,161.8 41.6,157.9 41.5,130.7 48.2,134.6 					"/>
				</g>
				<g>
					<polygon class="st16" points="74.1,119.6 74.2,146.8 48.3,161.8 48.2,134.6 54.3,131.1 54.4,153.1 68.1,145.1 68,123.1 					
						"/>
				</g>
			</g>
		</g>
		<g>
			<g class="st1">
				<path class="st17" d="M93.7,137.5c-3.4,1.6-8.7,4.2-13.3,5.8c-11.1,3.9-14.2-5.3-22.6-8c-13.4-4.2-29.5-5.9-30.3-18.5
					c-0.4,8.4,3,27.8,22.5,35.2c20.9,7.9,39.9-4.9,45.4-12.6C96.2,138.3,95,136.9,93.7,137.5z"/>
				
					<linearGradient id="SVGID_1_" gradientUnits="userSpaceOnUse" x1="34.59" y1="504.8189" x2="80.9456" y2="537.3434" gradientTransform="matrix(1 0 0 1 0 -404)">
					<stop  offset="0" style="stop-color:#CBCDCD"/>
					<stop  offset="0.519" style="stop-color:#B4B8B8"/>
					<stop  offset="1" style="stop-color:#A4A8A8"/>
				</linearGradient>
				<path class="st18" d="M93.7,110.4C83.3,94.8,61.2,87,44.4,92.9S22.5,116.2,33,131.7s32.6,23.3,49.4,17.4
					C99.1,143.3,104.2,125.9,93.7,110.4z"/>
				
					<linearGradient id="SVGID_2_" gradientUnits="userSpaceOnUse" x1="28.1481" y1="523.2318" x2="96.7269" y2="526.8337" gradientTransform="matrix(1 0 0 1 0 -404)">
					<stop  offset="0" style="stop-color:#FAFAFA"/>
					<stop  offset="0.6142" style="stop-color:#B3B8B8"/>
					<stop  offset="0.6701" style="stop-color:#B1B6B6"/>
					<stop  offset="1" style="stop-color:#868888"/>
				</linearGradient>
				<path class="st19" d="M92.8,110.7C82.7,95.6,61.2,88,44.9,93.8c-16.3,5.7-21.3,22.6-11.1,37.7s31.6,22.6,47.9,16.9
					C98,142.6,103,125.8,92.8,110.7z"/>
			</g>
			<path class="st20" d="M82.3,147L64,127.8c0.8-0.8,0.8-2.1,0-3.2c-0.2-0.3-0.5-0.5-0.8-0.8l17.4-24c0.2-0.2,0.2-0.5,0.1-0.7
				c-0.2-0.2-0.5-0.2-0.7-0.1l-17.6,24.3c-0.8-0.3-1.7-0.3-2.4,0c-0.5,0.3-0.8,0.6-1,1.1l-29.3-7.2c-0.3,0.1-0.4,0.3-0.3,0.6
				c0.1,0.3,0.3,0.4,0.6,0.3l28.9,7.3c0,0.5,0.2,1,0.6,1.5c0.9,1.2,2.5,1.8,3.8,1.3l18.1,19c0.1,0.2,0.3,0.4,0.5,0.4H82
				C82.2,147.5,82.3,147.2,82.3,147z"/>
			<path class="st17" d="M82.3,147l-10.4-40l8.8-7.2c0.2-0.2,0.2-0.5,0.1-0.7c-0.2-0.2-0.5-0.2-0.7-0.1l-9,7.4l-41.3,10.8
				c-0.3,0.1-0.4,0.3-0.3,0.6c0.1,0.3,0.3,0.4,0.6,0.3L71,107.4l10.4,39.8c0.1,0.2,0.3,0.4,0.5,0.4H82
				C82.2,147.5,82.3,147.2,82.3,147z"/>
			<g>
				<g class="st1">
					<g class="st1">
						<g>
							<g>
								<defs>
									<path id="SVGID_3_" d="M75.7,107.2l-1.7,2.3c-0.2,0.2-0.4,0.5-0.7,0.6c-1.3,0.7-3.1,0.1-4.1-1.2c-0.8-1-0.8-2.2-0.2-3
										l1.7-2.3c-0.6,0.8-0.5,2,0.2,3c1,1.3,2.8,1.9,4.1,1.2C75.2,107.6,75.5,107.4,75.7,107.2z"/>
								</defs>
								<clipPath id="SVGID_4_">
									<use xlink:href="#SVGID_3_"  style="overflow:visible;"/>
								</clipPath>
								<path class="st21" d="M74.9,107.8c-1.3,0.7-3.1,0.1-4.1-1.2c-0.8-1-0.8-2.2-0.2-3l-1.7,2.3c-0.6,0.8-0.5,2,0.2,3
									c1,1.3,2.8,1.9,4.1,1.2c0.3-0.2,0.5-0.4,0.7-0.6l1.7-2.3C75.5,107.4,75.2,107.6,74.9,107.8z"/>
							</g>
						</g>
					</g>
					<g>
						<path class="st22" d="M75.4,104.1c1,1.3,0.7,3-0.5,3.6c-1.3,0.7-3.1,0.1-4.1-1.2c-1-1.3-0.8-3,0.5-3.6
							C72.6,102.3,74.5,102.8,75.4,104.1z"/>
					</g>
				</g>
			</g>
		</g>
	</g>
	<g id="router">
		<g>
			<g>
				<polygon class="st6" points="291.3,242.6 290.6,242.1 291.3,241.8 291.5,241.8 292,242 292,242.2 				"/>
				<polygon class="st23" points="292,242.7 291.3,243.1 291.3,242.6 292,242.2 				"/>
				<polygon class="st5" points="290.6,242.7 291.3,243.1 291.3,242.6 290.6,242.1 				"/>
			</g>
			<g>
				<path d="M291.7,238h-0.8v4.1c0,0.1,0,0.1,0.1,0.2c0.2,0.1,0.4,0.1,0.6,0c0.1,0,0.1-0.1,0.1-0.2l0,0L291.7,238L291.7,238z"/>
				<path class="st6" d="M291.6,238.2c-0.2,0.1-0.4,0.1-0.6,0s-0.2-0.2,0-0.3s0.4-0.1,0.6,0C291.8,238,291.8,238.1,291.6,238.2z"/>
				<path class="st5" d="M291.3,223.8c-0.3,0-0.5,0.2-0.5,0.5v13.9c0,0.1,0.1,0.1,0.1,0.2c0.2,0.1,0.5,0.1,0.7,0
					c0.1-0.1,0.1-0.1,0.1-0.2v-13.9C291.8,224,291.6,223.8,291.3,223.8z"/>
			</g>
		</g>
		<g>
			<g>
				<polygon class="st6" points="281,236.6 280.3,236.2 280.9,235.8 281.2,235.8 281.6,236 281.6,236.2 				"/>
				<polygon class="st23" points="281.6,236.8 281,237.1 281,236.6 281.6,236.2 				"/>
				<polygon class="st5" points="280.3,236.7 281,237.1 281,236.6 280.3,236.2 				"/>
			</g>
			<g>
				<path d="M281.4,232.1h-0.8v4.1c0,0.1,0,0.1,0.1,0.2c0.2,0.1,0.4,0.1,0.6,0c0.1,0,0.1-0.1,0.1-0.2l0,0L281.4,232.1L281.4,232.1z"
					/>
				<path class="st6" d="M281.3,232.2c-0.2,0.1-0.4,0.1-0.6,0s-0.2-0.2,0-0.3s0.4-0.1,0.6,0C281.4,232,281.4,232.1,281.3,232.2z"/>
				<path class="st5" d="M281,217.8c-0.3,0-0.5,0.2-0.5,0.5v13.9c0,0.1,0,0.1,0.1,0.2c0.2,0.1,0.5,0.1,0.7,0
					c0.1-0.1,0.1-0.1,0.1-0.2v-13.9C281.5,218,281.2,217.8,281,217.8z"/>
			</g>
		</g>
		<g>
			<g>
				<polygon points="283.2,252.3 282.8,252.7 283.2,253.4 293.9,247.3 293.9,246.2 				"/>
			</g>
			<g>
				<path class="st23" d="M274.4,247.8c-3-1.7-8.8-5.6-8.8-5.6v1.1l17.6,10.2v-1.1C283.2,252.3,277.4,249.5,274.4,247.8z"/>
			</g>
		</g>
		<g>
			<path class="st6" d="M290.6,248l-1.7-1.1c0,0-0.1-0.2-0.2-0.2c-2.8-2-8.3-5.6-13.2-8c-3.1-1.4-5.6-2.6-5.6-2.6l5.5-3.2l0.1,0.1
				c3.3,1.3,6.7,2.9,10.2,4.9c3.4,2,6.9,4.3,10.2,6.8l0.1,0.1l-0.4,1.6L290.6,248z"/>
			<path class="st3" d="M282.8,239.6c1.4,0.8,2.7,1.6,4.1,2.5l0.6-0.3c-1.4-0.9-2.7-1.7-4.1-2.5c-1.3-0.8-2.7-1.5-4-2.2l-0.6,0.3
				C280.1,238.1,281.5,238.8,282.8,239.6z"/>
			<path d="M280.3,244.6c-3.4-2-6.9-4.3-10.2-6.8l-0.1-0.1v-1.6l0.1,0.1c3.3,1.3,6.7,2.9,10.2,4.9c3.4,2,6.9,4.3,10.2,6.8l0.1,0.1
				v1.6l-0.1-0.1C287.1,248.2,283.7,246.5,280.3,244.6z"/>
			<polygon class="st23" points="296.1,246.4 290.6,249.5 290.6,248 296.1,244.8 			"/>
		</g>
		<g>
			<path class="st23" d="M264.9,239.9l-0.5-0.1l0.1,1.3c0,0,2.3,1.8,7.6,5.3c0,0,4.5,3.1,12.4,6.3l0.1-0.4c0,0-6.1-3-10.1-5.2
				s-9.4-6.3-9.4-6.3L264.9,239.9z"/>
			<path d="M264.8,240.8c3.2,2.5,6.6,4.7,9.9,6.6c3.3,1.9,6.7,3.6,9.9,4.8v-1.1c-3.2-2.5-6.6-4.7-9.9-6.6c-3.3-1.9-6.7-3.6-9.9-4.8
				V240.8z"/>
			<path class="st6" d="M284.7,251.3l-1.7-1.1c0,0-0.1-0.2-0.2-0.2c-2.8-2-8.3-5.6-13.2-8c-3.1-1.4-5.6-2.6-5.6-2.6l5.5-3.2l0.1,0.1
				c3.3,1.3,6.7,2.9,10.2,4.9c3.4,2,6.9,4.3,10.2,6.8l0.1,0.1l-0.4,1.6L284.7,251.3z"/>
			<path class="st5" d="M274.4,247.9c-3.4-2-6.9-4.3-10.2-6.8l-0.1-0.1v-1.6l0.1,0.1c3.3,1.3,6.7,2.9,10.2,4.9
				c3.4,2,6.9,4.3,10.2,6.8l0.1,0.1v1.6l-0.1-0.1C281.3,251.6,277.8,249.9,274.4,247.9z M264.5,241c3.2,2.5,6.6,4.7,9.9,6.6
				c3.3,1.9,6.7,3.6,9.9,4.8v-1.1c-3.2-2.5-6.6-4.7-9.9-6.6c-3.3-1.9-6.7-3.6-9.9-4.8V241z"/>
			<path class="st9" d="M268.9,242.7c0,0.2-0.1,0.2-0.3,0.2c-0.2-0.1-0.3-0.3-0.3-0.5s0.1-0.2,0.3-0.2
				C268.8,242.3,268.9,242.5,268.9,242.7z"/>
			<path class="st9" d="M270.2,243.4c0,0.2-0.1,0.2-0.3,0.2c-0.2-0.1-0.3-0.3-0.3-0.5s0.1-0.2,0.3-0.2
				C270.1,243,270.2,243.2,270.2,243.4z"/>
			<path class="st9" d="M271.5,244.1c0,0.2-0.1,0.2-0.3,0.2c-0.2-0.1-0.3-0.3-0.3-0.5s0.1-0.2,0.3-0.2
				C271.4,243.8,271.5,244,271.5,244.1z"/>
			<path class="st9" d="M272.7,244.9c0,0.2-0.1,0.2-0.3,0.2c-0.2-0.1-0.3-0.3-0.3-0.5s0.1-0.2,0.3-0.2
				C272.6,244.5,272.7,244.7,272.7,244.9z"/>
			<path class="st9" d="M274,245.6c0,0.2-0.1,0.2-0.3,0.2c-0.2-0.1-0.3-0.3-0.3-0.5s0.1-0.2,0.3-0.2
				C273.9,245.2,274,245.4,274,245.6z"/>
			<path class="st9" d="M275.3,246.3c0,0.2-0.1,0.2-0.3,0.2c-0.2-0.1-0.3-0.3-0.3-0.5s0.1-0.2,0.3-0.2
				C275.2,246,275.3,246.2,275.3,246.3z"/>
			<path class="st9" d="M276.5,247.1c0,0.2-0.1,0.2-0.3,0.2c-0.2-0.1-0.3-0.3-0.3-0.5s0.1-0.2,0.3-0.2
				C276.4,246.7,276.5,246.9,276.5,247.1z"/>
			<path class="st24" d="M279.9,249c0,0.2-0.1,0.2-0.3,0.2c-0.2-0.1-0.3-0.3-0.3-0.5s0.1-0.2,0.3-0.2
				C279.8,248.6,279.9,248.9,279.9,249z"/>
			<polygon class="st23" points="290.2,249.7 284.7,252.9 284.7,251.3 290.2,248.2 			"/>
		</g>
	</g>
	<g id="modem">
	</g>
</g>
<g>
	<g>
		<path class="st3" d="M262.4,166.5l17.5-10.1c1-0.6,1.9-0.6,2.5-0.3l0,0l1.2,0.7l-0.3,0.5c0.1,0.4,0.2,0.8,0.2,1.2v20.2
			c0,2.3-1.6,5.1-3.6,6.3l-17.5,10.1c-0.4,0.2-0.8,0.4-1.1,0.4L261,196l-1.2-0.7c-0.7-0.4-1.1-1.2-1.1-2.3v-20.2
			C258.8,170.5,260.4,167.7,262.4,166.5z"/>
		<path class="st4" d="M259.9,193.6c0,2.3,1.6,3.2,3.6,2.1l17.5-10.1c2-1.2,3.6-4,3.6-6.3v-20.2c0-2.3-1.6-3.2-3.6-2.1l-17.5,10.1
			c-2,1.2-3.6,4-3.6,6.3V193.6z"/>
	</g>
	<g>
		<path class="st5" d="M263.3,166.8l17.5-10.1c1.1-0.6,2.1-0.7,2.8-0.3l0,0l0,0l0,0l2.7,1.6l-1.6,2.7v18.4c0,2.5-1.8,5.6-3.9,6.8
			L265,195l-1.7,2.9l-2.9-1.7c-0.6-0.4-1-1.3-1-2.5v-20.2C259.4,171.1,261.1,168,263.3,166.8z"/>
		<polygon points="260.3,191.2 260.9,191.5 260.9,178.1 260.3,177.8 		"/>
		<path class="st6" d="M262,195.3v-20.2c0-2.5,1.8-5.6,3.9-6.8l17.5-10.1c2.2-1.3,3.9-0.2,3.9,2.3v20.2c0,2.5-1.8,5.6-3.9,6.8
			l-17.4,10C263.8,198.8,262,197.8,262,195.3z"/>
	</g>
	<g>
		<path class="st3" d="M266,168.7l17.5-10.1c1-0.6,1.9-0.6,2.5-0.3l0,0l1.2,0.7l-0.3,0.5c0.1,0.4,0.2,0.8,0.2,1.2v20.2
			c0,2.3-1.6,5.1-3.6,6.3l-17.5,10c-0.4,0.2-0.8,0.4-1.1,0.4l-0.3,0.5l-1.2-0.7c-0.7-0.4-1.1-1.2-1.1-2.3v-20.2
			C262.3,172.6,264,169.8,266,168.7z"/>
		<path class="st4" d="M263.5,195.7c0,2.3,1.6,3.2,3.6,2.1l17.5-10.1c2-1.2,3.6-4,3.6-6.3v-20.2c0-2.3-1.6-3.2-3.6-2.1l-17.5,10.1
			c-2,1.1-3.6,4-3.6,6.3V195.7z"/>
	</g>
	<path class="st7" d="M273.3,176.7l0.3-0.2c0-0.1,0-0.2,0-0.3c0-0.5,0.4-1.2,0.9-1.5c0.2-0.1,0.4-0.1,0.5-0.1c0.2-1,0.8-2,1.6-2.5
		c0.9-0.5,1.7-0.1,1.7,1c0,0.2,0,0.5-0.1,0.7l0.1-0.1c0.9-0.5,1.7-0.1,1.7,1s-0.8,2.4-1.7,2.9l-4.9,2.8c-0.9,0.5-1.7,0.1-1.7-1
		C271.7,178.5,272.4,177.2,273.3,176.7z"/>
	<g>
		<path class="st8" d="M279.5,165.7c0-0.3,0.2-0.7,0.5-0.9c0.1-0.1,0.3-0.1,0.4,0l0.2,0.1l-0.1,0.1v0.1c0,0.3-0.2,0.7-0.5,0.9h-0.1
			l-0.1,0.1l-0.2-0.1l0,0C279.5,166,279.5,165.9,279.5,165.7z"/>
		<path class="st9" d="M279.7,165.8c0,0.3,0.2,0.5,0.5,0.3s0.5-0.6,0.5-0.9c0-0.3-0.2-0.5-0.5-0.3
			C279.9,165.1,279.7,165.5,279.7,165.8z"/>
	</g>
	<g>
		<path class="st8" d="M276.7,167.3c0-0.3,0.2-0.7,0.5-0.9c0.1-0.1,0.3-0.1,0.4,0l0.2,0.1l-0.1,0.1v0.1c0,0.3-0.2,0.7-0.5,0.9h-0.1
			l-0.1,0.1l-0.2-0.1l0,0C276.7,167.6,276.7,167.5,276.7,167.3z"/>
		<path class="st9" d="M276.9,167.4c0,0.3,0.2,0.5,0.5,0.3s0.5-0.6,0.5-0.9c0-0.3-0.2-0.5-0.5-0.3S276.9,167.1,276.9,167.4z"/>
	</g>
	<g>
		<path class="st8" d="M273.9,168.9c0-0.3,0.2-0.7,0.5-0.9c0.1-0.1,0.3-0.1,0.4,0l0.2,0.1l-0.1,0.1v0.1c0,0.3-0.2,0.7-0.5,0.9h-0.1
			l-0.1,0.1l-0.2-0.1l0,0C273.9,169.2,273.9,169.1,273.9,168.9z"/>
		<path class="st9" d="M274.1,169c0,0.3,0.2,0.5,0.5,0.3s0.5-0.6,0.5-0.9c0-0.3-0.2-0.5-0.5-0.3C274.3,168.3,274.1,168.7,274.1,169z
			"/>
	</g>
	<g>
		<path class="st8" d="M271.1,170.5c0-0.3,0.2-0.8,0.5-0.9c0.1-0.1,0.3-0.1,0.4,0l0.2,0.1l-0.1,0.1v0.1c0,0.3-0.2,0.7-0.5,0.9h-0.1
			l-0.1,0.1l-0.2-0.1l0,0C271.1,170.8,271.1,170.7,271.1,170.5z"/>
		<path class="st9" d="M271.3,170.7c0,0.3,0.2,0.5,0.5,0.3s0.5-0.6,0.5-0.9c0-0.3-0.2-0.5-0.5-0.3
			C271.5,169.9,271.3,170.3,271.3,170.7z"/>
	</g>
	<g>
		<path class="st9" d="M275.8,183.4c0.7-0.4,1.3-0.4,1.8-0.1c0.1,0.1,0.1,0.3,0,0.4c-0.1,0.2-0.3,0.3-0.4,0.2
			c-0.4-0.2-0.9-0.2-1.4,0.1s-1,0.8-1.4,1.5c-0.1,0.2-0.3,0.3-0.4,0.2c0,0-0.1-0.1-0.1-0.2c0-0.1,0-0.2,0.1-0.3
			C274.5,184.4,275.2,183.7,275.8,183.4z"/>
		<path class="st9" d="M272.6,183.8c0.8-1.3,2-2.6,3.1-3.3c1.2-0.7,2.4-0.8,3.2-0.4c0.1,0.1,0.1,0.3,0,0.4c-0.1,0.2-0.3,0.3-0.4,0.2
			c-0.7-0.4-1.8-0.2-2.8,0.3c-1,0.6-2.1,1.7-2.8,2.9c-0.1,0.2-0.3,0.3-0.4,0.2c0,0-0.1-0.1-0.1-0.2
			C272.5,184,272.6,183.9,272.6,183.8z"/>
		<path class="st9" d="M275.8,181.9c0.9-0.5,1.8-0.6,2.5-0.2c0.1,0.1,0.1,0.3,0,0.4c-0.1,0.2-0.3,0.3-0.4,0.2
			c-0.5-0.3-1.3-0.3-2.1,0.2c-0.7,0.4-1.5,1.3-2.1,2.3c-0.1,0.2-0.3,0.3-0.4,0.2c0,0-0.1-0.1-0.1-0.2c0-0.1,0-0.2,0.1-0.3
			C274,183.4,275,182.4,275.8,181.9z"/>
		<path class="st9" d="M275.8,185c0.4-0.2,0.8,0,0.8,0.5s-0.4,1.1-0.8,1.4c-0.4,0.2-0.8,0-0.8-0.5C275,185.8,275.4,185.2,275.8,185z
			"/>
	</g>
</g>
<g>
	<path class="st25" d="M70.7,228l0.3,1.8h-0.2c0.2,0.6,0.4,1.3,0.4,2.1v22.7c0,3.7-2.6,8.2-5.8,10l-11,6.3c-0.7,0.4-1.4,0.7-2,0.7
		l0.1,0.2l-1.6,0.7l-1.4-2.2l0,0c-0.5-0.7-0.7-1.6-0.7-2.8v-22.7c0-3.7,2.6-8.2,5.8-10l11-6.3c1-0.6,2-0.8,2.8-0.8l0,0L70.7,228z"/>
	<path class="st26" d="M73.1,229.3c0.5,0.8,0.9,1.8,0.9,3.1v23.3c0,4-2.8,8.8-6.2,10.8l-11.6,6.7c-1.2,0.7-2.4,1-3.3,0.8l-0.1,0.2
		l-1-0.6c-1.1-0.6-1.8-2-1.8-4v-23.3c0-4,2.8-8.8,6.2-10.8l11.6-6.7c1.7-1,3.3-1.1,4.4-0.4l1.1,0.6L73.1,229.3z"/>
	<path class="st25" d="M57.2,236.1l11.6-6.7c3.4-2,6.2-0.4,6.2,3.6v23.3c0,4-2.8,8.8-6.2,10.8l-11.6,6.7c-3.4,2-6.2,0.4-6.2-3.6
		v-23.3C51,243,53.8,238.1,57.2,236.1z"/>
	<path class="st27" d="M57.2,236.3c-3.3,1.9-6.1,6.7-6.1,10.5v23.3c0,3.9,2.7,5.4,6.1,3.5l11.5-6.7c3.3-1.9,6.1-6.7,6.1-10.5v-23.3
		c0-3.9-2.7-5.4-6.1-3.5L57.2,236.3z"/>
	<path class="st25" d="M63,247c-4.6,2.7-8.3,9.1-8.3,14.5c0,5.3,3.7,7.5,8.3,4.8c4-2.3,7.3-7.5,8.1-12.3l3.7-2.1v-4.1l-3.7,2.1
		C70.3,246,67,244.7,63,247z M63,248.4c3.9-2.3,7.1-0.4,7.1,4.1s-3.2,10.1-7.1,12.4s-7.1,0.4-7.1-4.1C55.9,256.2,59,250.7,63,248.4z
		"/>
	<path class="st25" d="M63.9,254v4.2c0,0.6-0.4,1.3-0.9,1.5c-0.5,0.3-0.9,0.1-0.9-0.5V255c0-0.6,0.4-1.3,0.9-1.5
		C63.5,253.2,63.9,253.5,63.9,254z"/>
	<path class="st23" d="M63.3,256.8c0,0,0.1,0.1,0.1,0.2v1.2c0,0.3-0.2,0.6-0.4,0.7c-0.1,0-0.2,0.1-0.2,0c0.1,0.1,0.2,0.1,0.3,0
		c0.2-0.1,0.4-0.4,0.4-0.7V257C63.4,256.9,63.4,256.8,63.3,256.8z"/>
	<path class="st9" d="M63.3,256.8c-0.1,0-0.1,0-0.2,0c-0.2,0.1-0.4,0.4-0.4,0.7v1.2c0,0.1,0,0.2,0.1,0.2s0.1,0,0.2,0
		c0.2-0.1,0.4-0.4,0.4-0.7V257C63.3,256.9,63.3,256.8,63.3,256.8z"/>
</g>
</svg>
